<?xml version="1.0" encoding="UTF-8" standalone="no"?>
<!-- Created with Inkscape (http://www.inkscape.org/) -->

<svg
   width="9.6199999mm"
   height="9.6199999mm"
   viewBox="0 0 96.200004 96.200001"
   version="1.1"
   id="svg5"
   sodipodi:docname="2.54_2x5_alternate-source-side.svg"
   inkscape:version="1.1.2 (76b9e6a115, 2022-02-25)"
   xmlns:inkscape="http://www.inkscape.org/namespaces/inkscape"
   xmlns:sodipodi="http://sodipodi.sourceforge.net/DTD/sodipodi-0.dtd"
   xmlns="http://www.w3.org/2000/svg"
   xmlns:svg="http://www.w3.org/2000/svg">
  <sodipodi:namedview
     id="namedview7"
     pagecolor="#ffffff"
     bordercolor="#666666"
     borderopacity="1.0"
     inkscape:pageshadow="2"
     inkscape:pageopacity="0.0"
     inkscape:pagecheckerboard="0"
     inkscape:document-units="mm"
     showgrid="false"
     units="mm"
     width="0.1in"
     inkscape:zoom="7.1795741"
     inkscape:cx="-1.0446302"
     inkscape:cy="10.237376"
     inkscape:window-width="1368"
     inkscape:window-height="836"
     inkscape:window-x="72"
     inkscape:window-y="27"
     inkscape:window-maximized="1"
     inkscape:current-layer="layer2"
     showguides="true"
     inkscape:guide-bbox="true">
    <sodipodi:guide
       position="-25.400001,168.34312"
       orientation="-1,0"
       id="guide2982"
       inkscape:label=""
       inkscape:locked="false"
       inkscape:color="rgb(0,0,255)" />
    <sodipodi:guide
       position="25.400001,122.36179"
       orientation="-1,0"
       id="guide2984"
       inkscape:label=""
       inkscape:locked="false"
       inkscape:color="rgb(0,0,255)" />
    <sodipodi:guide
       position="-57.300003,141.2"
       orientation="0,1"
       id="guide2986"
       inkscape:label=""
       inkscape:locked="false"
       inkscape:color="rgb(0,0,255)" />
    <sodipodi:guide
       position="-93.751037,96.200003"
       orientation="0,1"
       id="guide3343"
       inkscape:label=""
       inkscape:locked="false"
       inkscape:color="rgb(0,0,255)" />
    <sodipodi:guide
       position="-57.300002,138.7"
       orientation="0,-1"
       id="guide3458" />
    <sodipodi:guide
       position="0,189.94081"
       orientation="-1,0"
       id="guide3684"
       inkscape:label=""
       inkscape:locked="false"
       inkscape:color="rgb(0,0,255)" />
    <sodipodi:guide
       position="-50.800004,53.379434"
       orientation="1,0"
       id="guide3790" />
    <sodipodi:guide
       position="50.800004,53.379434"
       orientation="1,0"
       id="guide3792" />
    <sodipodi:guide
       position="-57.300003,53.7"
       orientation="0,-1"
       id="guide3978" />
    <sodipodi:guide
       position="0,51.199998"
       orientation="0,-1"
       id="guide3980" />
  </sodipodi:namedview>
  <defs
     id="defs2" />
  <g
     inkscape:groupmode="layer"
     id="layer3"
     inkscape:label="CrtYd">
    <path
       style="fill:none;stroke:#000000;stroke-width:0.50000003;stroke-linecap:butt;stroke-linejoin:miter;stroke-opacity:1;stroke-miterlimit:4;stroke-dasharray:none"
       d="M -57.300002,42.500002 V -42.500002 H 57.300002 v 85.000004 z"
       id="path2184"
       sodipodi:nodetypes="ccccc" />
  </g>
  <g
     inkscape:groupmode="layer"
     id="layer2"
     inkscape:label="SilkS"
     style="display:inline">
    <path
       id="path7423-3-5-6"
       style="display:inline;fill:#000000;fill-opacity:1;stroke:none;stroke-width:0.254;stroke-linecap:butt;stroke-linejoin:miter;stroke-miterlimit:4;stroke-dasharray:none;stroke-opacity:1"
       d="m 50.270398,55.200034 -7.93233,7.932329 V 47.267701 l 7.93233,7.932333 2.31511,1.276408 h 6.14432 l -7.93233,7.927161 v 1.79834 h 1.79834 l 9.19841,-9.203569 0.005,-1.793173 -0.005,-1.798339 -9.19841,-9.198406 -1.79834,-0.0052 v 1.79834 l 7.9375,7.9375 h -6.13399 l -0.53227,-0.532264 -9.20357,-9.203573 -1.79834,-0.0052 -1.26607,1.27124 v 19.456174 l 1.26607,1.27124 v 0.005 l 1.79834,-0.005 9.72034,-9.720333 z"
       sodipodi:nodetypes="ccccccccccccccccccccccccccc" />
    <path
       id="path8392"
       style="display:inline;fill:#000000;fill-opacity:1;stroke:none;stroke-width:0.254;stroke-linecap:butt;stroke-linejoin:miter;stroke-miterlimit:4;stroke-dasharray:none;stroke-opacity:1"
       d="m -50.797583,44.200658 -1.79834,0.0052 -9.19841,9.198406 -0.005,1.798339 h 1.79834 l 7.9375,-7.9375 v 17.663001 l 1.26607,1.27124 1.27125,-1.27124 V 47.270238 l 7.92716,7.932332 h 1.79834 v -1.798339 l -9.20357,-9.198406 z" />
    <path
       id="path8392-2"
       style="display:inline;fill:#000000;fill-opacity:1;stroke:none;stroke-width:0.254;stroke-linecap:butt;stroke-linejoin:miter;stroke-miterlimit:4;stroke-dasharray:none;stroke-opacity:1"
       d="M -8.454265,57.135314 V 54.458483 L 5e-6,45.999011 l 8.45426,8.459432 v 2.671671 l -16.90853,0.0052 v 2.537281 h 16.90337 v 5.250326 l 1.27124,1.27641 1.27123,-1.27124 v -9.725509 h 0.005 l -0.005,-1.79834 -1.26607,-1.276408 -0.005,0.0052 -7.92716,-7.932332 h -1.78801 -0.0103 l -1.7882,-3.1e-5 -9.19841,9.203573 -0.005,1.79834 h 0.005 v 9.725507 l 1.26607,1.27124 1.27124,-1.27124 v -5.255496 z"
       sodipodi:nodetypes="cccccccccccccccccccccccccccc" />
    <g
       id="g17481"
       transform="translate(38.09845,17.099582)"
       style="display:inline">
      <path
         style="fill:#000000;fill-opacity:1;stroke:none;stroke-width:0.254;stroke-linecap:butt;stroke-linejoin:miter;stroke-miterlimit:4;stroke-dasharray:none;stroke-opacity:1"
         d="m -65.655943,46.565019 -1.27124,1.271241 1.271239,1.266071 h 4.314983 l 1.27124,-1.266071 -1.27124,-1.271241 z"
         id="path1436" />
      <path
         style="fill:#000000;fill-opacity:1;stroke:none;stroke-width:0.254;stroke-linecap:butt;stroke-linejoin:miter;stroke-miterlimit:4;stroke-dasharray:none;stroke-opacity:1"
         d="m -69.464496,41.655757 -1.271241,1.271241 1.271241,1.266071 h 11.937255 l 1.271241,-1.266071 -1.271241,-1.271241 z"
         id="path1434" />
      <path
         style="fill:#000000;fill-opacity:1;stroke:none;stroke-width:0.254;stroke-linecap:butt;stroke-linejoin:miter;stroke-miterlimit:4;stroke-dasharray:none;stroke-opacity:1"
         d="m -63.495868,27.098506 -1.27124,1.271241 v 8.459431 h -8.459432 l -1.27124,1.271241 1.27124,1.266073 h 19.456177 l 1.27124,-1.266073 -1.27124,-1.271241 h -8.459432 v -8.459431 z"
         id="path7423" />
    </g>
    <path
       style="display:inline;fill:#000000;fill-opacity:1;stroke:none;stroke-width:0.254;stroke-linecap:butt;stroke-linejoin:miter;stroke-miterlimit:4;stroke-dasharray:none;stroke-opacity:1"
       d="m 16.945567,56.473961 13.43587,-0.0052 0.52193,0.5271 3.70004,3.700033 1.79834,0.0052 v -1.798339 l -3.70004,-3.700033 3.70004,-3.705201 v -1.798338 l -1.79834,0.0052 -3.70004,3.705201 -0.52193,0.521931 h -13.44104 z"
       id="path28138" />
    <path
       style="display:inline;fill:#000000;fill-opacity:1;stroke:none;stroke-width:0.254;stroke-linecap:butt;stroke-linejoin:miter;stroke-miterlimit:4;stroke-dasharray:none;stroke-opacity:1"
       d="m 16.940567,46.743323 14.70712,-0.0052 2.95589,2.955892 1.79834,0.0052 v -1.79834 l -3.70004,-3.700033 -1.79834,-0.0053 v 0.0052 l -15.22904,0.0052 -1.27641,1.266072 0.005,0.0052 v 19.451006 0.005 l 1.27124,1.27124 15.22904,-0.005 v 0.005 l 1.79834,-0.005 3.70021,-3.70006 v -1.798341 l -1.79834,0.0052 -2.95589,2.955891 -14.70195,0.005 z"
       id="path21905-7-0"
       sodipodi:nodetypes="ccccccccccccccccccccccc" />
  </g>
</svg>
