<?xml version="1.0" encoding="UTF-8" standalone="no"?>
<!-- Created with Inkscape (http://www.inkscape.org/) -->

<svg
   width="30mm"
   height="30mm"
   viewBox="0 0 30 30"
   version="1.1"
   id="svg5"
   sodipodi:docname="iridyne.svg"
   inkscape:version="1.1.1 (eb90963e84, 2021-10-02)"
   xmlns:inkscape="http://www.inkscape.org/namespaces/inkscape"
   xmlns:sodipodi="http://sodipodi.sourceforge.net/DTD/sodipodi-0.dtd"
   xmlns="http://www.w3.org/2000/svg"
   xmlns:svg="http://www.w3.org/2000/svg">
  <sodipodi:namedview
     id="namedview7"
     pagecolor="#ffffff"
     bordercolor="#666666"
     borderopacity="1.0"
     inkscape:pageshadow="2"
     inkscape:pageopacity="0.0"
     inkscape:pagecheckerboard="0"
     inkscape:document-units="mm"
     showgrid="false"
     inkscape:zoom="2.5497609"
     inkscape:cx="72.751919"
     inkscape:cy="53.142237"
     inkscape:window-width="1368"
     inkscape:window-height="836"
     inkscape:window-x="72"
     inkscape:window-y="27"
     inkscape:window-maximized="1"
     inkscape:current-layer="layer1"
     showguides="true" />
  <defs
     id="defs2" />
  <g
     inkscape:label="SilkS"
     inkscape:groupmode="layer"
     id="layer1">
    <path
       style="color:#000000;fill:#000000;stroke-width:0;stroke-miterlimit:4;stroke-dasharray:none;stroke:none"
       d="m 90.708984,105.82617 v 7.56055 h 7.558594 v -7.56055 z"
       transform="scale(0.26458333)"
       id="path1234" />
    <path
       style="color:#000000;fill:#000000;stroke-width:0;stroke-miterlimit:4;stroke-dasharray:none;stroke:none"
       d="m 0,90.708984 v 7.558594 h 7.5585938 v -7.558594 z"
       transform="scale(0.26458333)"
       id="path1232" />
    <path
       style="color:#000000;fill:#000000;stroke-width:0;stroke-miterlimit:4;stroke-dasharray:none;stroke:none"
       d="m 67.382812,80.935547 -5.34375,5.345703 11.986329,11.986328 h 12.904297 3.779296 7.558594 3.779302 11.33984 V 90.708984 H 102.04688 98.267578 90.708984 86.929688 77.15625 Z"
       transform="scale(0.26458333)"
       id="path1230" />
    <path
       style="color:#000000;fill:#000000;stroke-width:0;stroke-miterlimit:4;stroke-dasharray:none;stroke:none"
       d="m 64.902344,62.039062 -5.53711,5.533204 -2.671875,2.673828 -5.345703,5.34375 -2.671875,2.673828 -12.445312,12.445312 h -5.994141 v 7.558594 h 9.123047 l 14.660156,-14.660156 2.671875,-2.673828 0.002,0.002 5.34375,-5.345703 2.673829,-2.671875 5.535156,-5.535157 z"
       transform="scale(0.26458333)"
       id="path1228" />
    <path
       style="color:#000000;fill:#000000;stroke-width:0;stroke-miterlimit:4;stroke-dasharray:none;stroke:none"
       d="M 27.105469,62.037109 15.117188,74.025391 v 12.904297 3.779296 7.558594 3.779302 11.33984 h 7.560546 V 102.04688 98.267578 90.708984 86.929688 77.15625 l 9.773438,-9.773438 z"
       transform="scale(0.26458333)"
       id="path1226" />
    <path
       style="color:#000000;fill:#000000;stroke-width:0;stroke-miterlimit:4;stroke-dasharray:none;stroke:none"
       d="m 67.382812,43.140625 -5.34375,5.34375 5.533204,5.535156 2.673828,2.673828 5.34375,5.34375 2.673828,2.673829 12.445312,12.445312 v 5.994141 h 7.558594 v -9.125 l -14.660156,-14.660157 -2.673828,-2.673828 -5.34375,-5.34375 -2.671875,-2.671875 z"
       transform="scale(0.26458333)"
       id="path1224" />
    <path
       style="color:#000000;fill:#000000;stroke-width:0;stroke-miterlimit:4;stroke-dasharray:none;stroke:none"
       d="m 15.117188,30.236328 v 9.123047 l 14.660156,14.660156 2.671875,2.671875 5.347656,5.347656 2.671875,2.671876 5.535156,5.535156 5.34375,-5.345703 L 45.8125,59.365234 43.140625,56.693359 37.794922,51.347656 35.123047,48.675781 22.677734,36.230469 v -5.994141 z"
       transform="scale(0.26458333)"
       id="path1222" />
    <path
       style="color:#000000;fill:#000000;stroke-width:0;stroke-miterlimit:4;stroke-dasharray:none;stroke:none"
       d="m 105.82617,15.117188 v 7.560546 h 7.56055 v -7.560546 z"
       transform="scale(0.26458333)"
       id="path1220" />
    <path
       style="color:#000000;fill:#000000;stroke-width:0;stroke-miterlimit:4;stroke-dasharray:none;stroke:none"
       d="m 74.025391,15.117188 -14.660157,14.660156 -8.017578,8.017578 -2.671875,2.673828 -5.535156,5.533203 5.345703,5.345703 5.533203,-5.535156 2.673828,-2.671875 8.017579,-8.017578 12.445312,-12.445313 h 5.994141 v -7.560546 z"
       transform="scale(0.26458333)"
       id="path1218" />
    <path
       style="color:#000000;fill:#000000;stroke-width:0;stroke-miterlimit:4;stroke-dasharray:none;stroke:none"
       d="m 0,15.117188 v 7.560546 h 11.337891 3.779297 7.560546 3.779297 9.773438 l 9.773437,9.771485 5.34375,-5.34375 L 39.359375,15.117188 H 26.457031 22.677734 15.117188 11.337891 Z"
       transform="scale(0.26458333)"
       id="path1216" />
    <path
       style="color:#000000;fill:#000000;stroke-width:0;stroke-miterlimit:4;stroke-dasharray:none;stroke:none"
       d="m 90.708984,0 v 11.337891 3.779297 7.560546 3.779297 9.773438 l -9.773437,9.771484 5.34375,5.34375 11.988281,-11.986328 V 26.457031 22.677734 15.117188 11.337891 0 Z"
       transform="scale(0.26458333)"
       id="path1214" />
    <path
       style="color:#000000;fill:#000000;stroke-width:0;stroke-miterlimit:4;stroke-dasharray:none;stroke:none"
       d="m 15.117188,0 v 7.5585938 h 7.560546 V 0 Z"
       transform="scale(0.26458333)"
       id="path1737" />
  </g>
</svg>
