<?xml version="1.0" standalone="no"?>
 <!DOCTYPE svg PUBLIC "-//W3C//DTD SVG 1.1//EN" 
 "http://www.w3.org/Graphics/SVG/1.1/DTD/svg11.dtd"> 
<svg xmlns="http://www.w3.org/2000/svg" version="1.1" 
    width="9.99998cm" height="10.2057cm" viewBox="0 0 39370 40180 ">
<title>SVG Picture created as amper-F_CrtYd.svg date 2022/03/06 17:49:34 </title>
  <desc>Picture generated by PCBNEW </desc>
<g style="fill:#000000; fill-opacity:1;stroke:#000000; stroke-opacity:1;
stroke-linecap:round; stroke-linejoin:round; "
 transform="translate(0 0) scale(1 1)">
</g>
<g style="fill:#000000; fill-opacity:0.0; 
stroke:#000000; stroke-width:-0.000393701; stroke-opacity:1; 
stroke-linecap:round; stroke-linejoin:round;">
</g>
<g style="fill:#C2C2C2; fill-opacity:0.0; 
stroke:#C2C2C2; stroke-width:-0.000393701; stroke-opacity:1; 
stroke-linecap:round; stroke-linejoin:round;">
</g>
<g style="fill:#C2C2C2; fill-opacity:0.0; 
stroke:#C2C2C2; stroke-width:47.2441; stroke-opacity:1; 
stroke-linecap:round; stroke-linejoin:round;">
<path d="M8082 37401
L9842 37401
" />
<path d="M8082 40157
L8082 37401
" />
<path d="M11602 40157
L8082 40157
" />
<path d="M11602 37401
L11602 40157
" />
<path d="M9842 37401
L11602 37401
" />
<path d="M23622 7480
L23622 12992
" />
<path d="M15748 7480
L15748 12992
" />
<path d="M17291 6240
L17291 7480
" />
<path d="M17291 12992
L17291 14232
" />
<path d="M22078 6240
L22078 7480
" />
<path d="M22078 12992
L22078 14232
" />
<path d="M22078 6240
L17291 6240
" />
<path d="M17291 14232
L22078 14232
" />
<path d="M22078 12992
L23622 12992
" />
<path d="M15748 12992
L17291 12992
" />
<path d="M17291 7480
L15748 7480
" />
<path d="M22078 7480
L23622 7480
" />
<path d="M14566 16929
L14566 22440
" />
<path d="M6692 16929
L6692 22440
" />
<path d="M8236 15688
L8236 16929
" />
<path d="M8236 22440
L8236 23681
" />
<path d="M13023 15688
L13023 16929
" />
<path d="M13023 22440
L13023 23681
" />
<path d="M13023 15688
L8236 15688
" />
<path d="M8236 23681
L13023 23681
" />
<path d="M13023 22440
L14566 22440
" />
<path d="M6692 22440
L8236 22440
" />
<path d="M8236 16929
L6692 16929
" />
<path d="M13023 16929
L14566 16929
" />
</g>
<g style="fill:#C2C2C2; fill-opacity:0.0; 
stroke:#C2C2C2; stroke-width:19.685; stroke-opacity:1; 
stroke-linecap:round; stroke-linejoin:round;">
<path d="M32003 31929
L32578 31929
" />
<path d="M32578 31929
L32578 33228
" />
<path d="M32578 33228
L32003 33228
" />
<path d="M32003 33228
L32003 31929
" />
<circle cx="30679.1" cy="28641.7" r="590.551" /> 
<circle cx="27066.9" cy="28641.7" r="590.551" /> 
<path d="M32578 29960
L32578 31259
" />
<path d="M32003 29960
L32578 29960
" />
<path d="M32003 31259
L32003 29960
" />
<path d="M32578 31259
L32003 31259
" />
<path d="M27566 33228
L27566 31929
" />
<path d="M28141 33228
L27566 33228
" />
<path d="M28141 31929
L28141 33228
" />
<path d="M27566 31929
L28141 31929
" />
<path d="M26779 30866
L26779 29566
" />
<path d="M27354 30866
L26779 30866
" />
<path d="M27354 29566
L27354 30866
" />
<path d="M26779 29566
L27354 29566
" />
<circle cx="25492.1" cy="30216.5" r="590.551" /> 
<path d="M27322 31110
L27322 31685
" />
<path d="M27322 31685
L26023 31685
" />
<path d="M26023 31685
L26023 31110
" />
<path d="M26023 31110
L27322 31110
" />
<path d="M26779 31929
L27354 31929
" />
<path d="M27354 31929
L27354 33228
" />
<path d="M27354 33228
L26779 33228
" />
<path d="M26779 33228
L26779 31929
" />
<path d="M28248 29584
L28248 31710
" />
<path d="M28248 31710
L31161 31710
" />
<path d="M31161 31710
L31161 29584
" />
<path d="M31161 29584
L28248 29584
" />
</g>
<g style="fill:#C2C2C2; fill-opacity:0.0; 
stroke:#C2C2C2; stroke-width:47.2441; stroke-opacity:1; 
stroke-linecap:round; stroke-linejoin:round;">
<path d="M28316 34940
L28316 32578
" />
<path d="M30679 34940
L28316 34940
" />
<path d="M30679 32578
L30679 34940
" />
<path d="M28316 32578
L30679 32578
" />
</g>
<g style="fill:#C2C2C2; fill-opacity:0.0; 
stroke:#C2C2C2; stroke-width:19.685; stroke-opacity:1; 
stroke-linecap:round; stroke-linejoin:round;">
<circle cx="12568.9" cy="28641.7" r="590.551" /> 
<circle cx="8956.69" cy="28641.7" r="590.551" /> 
<path d="M13893 33228
L13893 31929
" />
<path d="M14468 33228
L13893 33228
" />
<path d="M14468 31929
L14468 33228
" />
<path d="M13893 31929
L14468 31929
" />
<path d="M7913 31110
L9212 31110
" />
<path d="M7913 31685
L7913 31110
" />
<path d="M9212 31685
L7913 31685
" />
<path d="M9212 31110
L9212 31685
" />
<path d="M14468 31259
L13893 31259
" />
<path d="M13893 31259
L13893 29960
" />
<path d="M13893 29960
L14468 29960
" />
<path d="M14468 29960
L14468 31259
" />
<circle cx="7381.89" cy="30216.5" r="590.551" /> 
<path d="M8669 33228
L8669 31929
" />
<path d="M9244 33228
L8669 33228
" />
<path d="M9244 31929
L9244 33228
" />
<path d="M8669 31929
L9244 31929
" />
<path d="M13051 29584
L10137 29584
" />
<path d="M13051 31710
L13051 29584
" />
<path d="M10137 31710
L13051 31710
" />
<path d="M10137 29584
L10137 31710
" />
<path d="M9456 31929
L10031 31929
" />
<path d="M10031 31929
L10031 33228
" />
<path d="M10031 33228
L9456 33228
" />
<path d="M9456 33228
L9456 31929
" />
<path d="M8669 29566
L9244 29566
" />
<path d="M9244 29566
L9244 30866
" />
<path d="M9244 30866
L8669 30866
" />
<path d="M8669 30866
L8669 29566
" />
</g>
<g style="fill:#C2C2C2; fill-opacity:0.0; 
stroke:#C2C2C2; stroke-width:47.2441; stroke-opacity:1; 
stroke-linecap:round; stroke-linejoin:round;">
<path d="M10206 32578
L12568 32578
" />
<path d="M12568 32578
L12568 34940
" />
<path d="M12568 34940
L10206 34940
" />
<path d="M10206 34940
L10206 32578
" />
</g>
<g style="fill:#C2C2C2; fill-opacity:0.0; 
stroke:#C2C2C2; stroke-width:19.685; stroke-opacity:1; 
stroke-linecap:round; stroke-linejoin:round;">
<path d="M24671 23334
L25970 23334
" />
<path d="M24671 23909
L24671 23334
" />
<path d="M25970 23909
L24671 23909
" />
<path d="M25970 23334
L25970 23909
" />
</g>
<g style="fill:#C2C2C2; fill-opacity:0.0; 
stroke:#C2C2C2; stroke-width:47.2441; stroke-opacity:1; 
stroke-linecap:round; stroke-linejoin:round;">
<path d="M31133 16929
L32677 16929
" />
<path d="M26346 16929
L24803 16929
" />
<path d="M24803 22440
L26346 22440
" />
<path d="M31133 22440
L32677 22440
" />
<path d="M26346 23681
L31133 23681
" />
<path d="M31133 15688
L26346 15688
" />
<path d="M31133 22440
L31133 23681
" />
<path d="M31133 15688
L31133 16929
" />
<path d="M26346 22440
L26346 23681
" />
<path d="M26346 15688
L26346 16929
" />
<path d="M24803 16929
L24803 22440
" />
<path d="M32677 16929
L32677 22440
" />
</g>
<g style="fill:#C2C2C2; fill-opacity:0.0; 
stroke:#C2C2C2; stroke-width:19.685; stroke-opacity:1; 
stroke-linecap:round; stroke-linejoin:round;">
<path d="M31509 23909
L31509 23334
" />
<path d="M31509 23334
L32809 23334
" />
<path d="M32809 23334
L32809 23909
" />
<path d="M32809 23909
L31509 23909
" />
<path d="M17429 30413
L17429 27066
" />
<path d="M21940 30413
L17429 30413
" />
<path d="M21940 27066
L21940 30413
" />
<path d="M17429 27066
L21940 27066
" />
<path d="M7860 23334
L7860 23909
" />
<path d="M7860 23909
L6560 23909
" />
<path d="M6560 23909
L6560 23334
" />
<path d="M6560 23334
L7860 23334
" />
<path d="M14698 23909
L13399 23909
" />
<path d="M14698 23334
L14698 23909
" />
<path d="M13399 23334
L14698 23334
" />
<path d="M13399 23909
L13399 23334
" />
<path d="M11948 5409
L11948 10338
" />
<path d="M11948 10338
L7342 10338
" />
<path d="M7342 10338
L7342 5409
" />
<path d="M7342 5409
L11948 5409
" />
<path d="M26208 4074
L26208 9311
" />
<path d="M26208 9311
L30877 9311
" />
<path d="M30877 9311
L30877 4074
" />
<path d="M30877 4074
L26208 4074
" />
</g>
<g style="fill:#C2C2C2; fill-opacity:0.0; 
stroke:#C2C2C2; stroke-width:125; stroke-opacity:1; 
stroke-linecap:round; stroke-linejoin:round;">
<path d="M17791 17802
L17791 21590
" />
<path d="M17791 21590
L21578 21590
" />
<path d="M21578 21590
L21578 17802
" />
<path d="M21578 17802
L17791 17802
" />
</g>
<g style="fill:#C2C2C2; fill-opacity:0.0; 
stroke:#C2C2C2; stroke-width:19.685; stroke-opacity:1; 
stroke-linecap:round; stroke-linejoin:round;">
<path d="M13188 7015
L13188 8314
" />
<path d="M12614 7015
L13188 7015
" />
<path d="M12614 8314
L12614 7015
" />
<path d="M13188 8314
L12614 8314
" />
<path d="M12614 5433
L13188 5433
" />
<path d="M13188 5433
L13188 6732
" />
<path d="M13188 6732
L12614 6732
" />
<path d="M12614 6732
L12614 5433
" />
<path d="M9114 5011
L7814 5011
" />
<path d="M9114 4437
L9114 5011
" />
<path d="M7814 4437
L9114 4437
" />
<path d="M7814 5011
L7814 4437
" />
<path d="M11476 4437
L11476 5011
" />
<path d="M11476 5011
L10177 5011
" />
<path d="M10177 5011
L10177 4437
" />
<path d="M10177 4437
L11476 4437
" />
</g>
<g style="fill:#C2C2C2; fill-opacity:0.0; 
stroke:#C2C2C2; stroke-width:47.2441; stroke-opacity:1; 
stroke-linecap:round; stroke-linejoin:round;">
<path d="M6889 7480
L4527 7480
" />
<path d="M4527 7480
L4527 5118
" />
<path d="M4527 5118
L6889 5118
" />
<path d="M6889 5118
L6889 7480
" />
</g>
<g style="fill:#C2C2C2; fill-opacity:0.0; 
stroke:#C2C2C2; stroke-width:19.685; stroke-opacity:1; 
stroke-linecap:round; stroke-linejoin:round;">
<path d="M13204 8314
L13204 7015
" />
<path d="M13779 8314
L13204 8314
" />
<path d="M13779 7015
L13779 8314
" />
<path d="M13204 7015
L13779 7015
" />
<path d="M13779 6732
L13204 6732
" />
<path d="M13204 6732
L13204 5433
" />
<path d="M13204 5433
L13779 5433
" />
<path d="M13779 5433
L13779 6732
" />
<path d="M7177 37539
L7177 38838
" />
<path d="M6602 37539
L7177 37539
" />
<path d="M6602 38838
L6602 37539
" />
<path d="M7177 38838
L6602 38838
" />
<path d="M13082 38838
L12507 38838
" />
<path d="M12507 38838
L12507 37539
" />
<path d="M12507 37539
L13082 37539
" />
<path d="M13082 37539
L13082 38838
" />
</g>
<g style="fill:#C2C2C2; fill-opacity:0.0; 
stroke:#C2C2C2; stroke-width:52.0835; stroke-opacity:1; 
stroke-linecap:round; stroke-linejoin:round;">
<path d="M17429 26958
L17429 23612
" />
<path d="M17429 23612
L21940 23612
" />
<path d="M21940 23612
L21940 26958
" />
<path d="M21940 26958
L17429 26958
" />
<path d="M17429 33883
L17429 30537
" />
<path d="M17429 30537
L21940 30537
" />
<path d="M21940 30537
L21940 33883
" />
<path d="M21940 33883
L17429 33883
" />
</g>
<g style="fill:#C2C2C2; fill-opacity:0.0; 
stroke:#C2C2C2; stroke-width:19.685; stroke-opacity:1; 
stroke-linecap:round; stroke-linejoin:round;">
<path d="M29192 3255
L29192 3830
" />
<path d="M29192 3830
L27893 3830
" />
<path d="M27893 3830
L27893 3255
" />
<path d="M27893 3255
L29192 3255
" />
</g>
<g style="fill:#C2C2C2; fill-opacity:0.0; 
stroke:#C2C2C2; stroke-width:125; stroke-opacity:1; 
stroke-linecap:round; stroke-linejoin:round;">
<path d="M6555 24074
L10374 24074
" />
<path d="M10374 24074
L10374 26318
" />
<path d="M10374 26318
L6555 26318
" />
<path d="M6555 26318
L6555 24074
" />
<path d="M10885 26318
L10885 24074
" />
<path d="M14704 26318
L10885 26318
" />
<path d="M14704 24074
L14704 26318
" />
<path d="M10885 24074
L14704 24074
" />
<path d="M24665 26318
L24665 24074
" />
<path d="M28484 26318
L24665 26318
" />
<path d="M28484 24074
L28484 26318
" />
<path d="M24665 24074
L28484 24074
" />
<path d="M28996 24074
L32814 24074
" />
<path d="M32814 24074
L32814 26318
" />
<path d="M32814 26318
L28996 26318
" />
<path d="M28996 26318
L28996 24074
" />
</g>
<g style="fill:#C2C2C2; fill-opacity:0.0; 
stroke:#C2C2C2; stroke-width:19.685; stroke-opacity:1; 
stroke-linecap:round; stroke-linejoin:round;">
<path d="M25708 12125
L24311 12125
" />
<path d="M24311 12125
L24311 2716
" />
<path d="M24311 2716
L25708 2716
" />
<path d="M25708 2716
L25708 12125
" />
<path d="M31377 12118
L31377 2708
" />
<path d="M32775 12118
L31377 12118
" />
<path d="M32775 2708
L32775 12118
" />
<path d="M31377 2708
L32775 2708
" />
<g >
</g>
<g >
</g>
<g >
</g>
<g >
</g>
<g >
</g>
<g >
</g>
<g >
</g>
<g >
</g>
<g >
</g>
<g >
</g>
<g >
</g>
<g >
</g>
<g >
</g>
<g >
</g>
<g >
</g>
<g >
</g>
<g >
</g>
<g >
</g>
<g >
</g>
<g >
</g>
<g >
</g>
<g >
</g>
<g >
</g>
<g >
</g>
<g >
</g>
<g >
</g>
<g >
</g>
<g >
</g>
<g >
</g>
<g >
</g>
<g >
</g>
<g >
</g>
<g >
</g>
<g >
</g>
<g >
</g>
<g >
</g>
<g >
</g>
<g >
</g>
<g >
</g>
<g >
</g>
<g >
</g>
<g >
</g>
<g >
</g>
<g >
</g>
<g >
</g>
<g >
</g>
<g >
</g>
<g >
</g>
<g >
</g>
<g >
</g>
<g >
</g>
<g >
</g>
<g >
</g>
<g >
</g>
<g >
</g>
<g >
</g>
<g >
</g>
<g >
</g>
<g >
</g>
<g >
</g>
</g>
<g style="fill:#000000; fill-opacity:0.0; 
stroke:#000000; stroke-width:19.685; stroke-opacity:1; 
stroke-linecap:round; stroke-linejoin:round;">
</g>
<g style="fill:#C2C200; fill-opacity:0.0; 
stroke:#C2C200; stroke-width:19.685; stroke-opacity:1; 
stroke-linecap:round; stroke-linejoin:round;">
<path d="M35433 37401
L35433 2362
" />
<path d="M5905 39370
L33464 39370
" />
<path d="M3937 2362
L3937 37401
" />
<path d="M33464 393
L5905 393
" />
<path d="M35433.1 2362.2 A1968.5 1968.5 0.0 0 0 33464.6 393.701 " />
<path d="M33464.6 39370.1 A1968.5 1968.5 0.0 0 0 35433.1 37401.6 " />
<path d="M3937.01 37401.6 A1968.5 1968.5 0.0 0 0 5905.51 39370.1 " />
<path d="M5905.51 393.701 A1968.5 1968.5 0.0 0 0 3937.01 2362.2 " />
<g >
</g>
<g >
</g>
<g >
</g>
<g >
</g>
<g >
</g>
<g >
</g>
<g >
</g>
<g >
</g>
<g >
</g>
<g >
</g>
<g >
</g>
<g >
</g>
<g >
</g>
<g >
</g>
<g >
</g>
<g >
</g>
<g >
</g>
<g >
</g>
<g >
</g>
<g >
</g>
<g >
</g>
<g >
</g>
<g >
</g>
<g >
</g>
<g >
</g>
<g >
</g>
<g >
</g>
<g >
</g>
<g >
</g>
<g >
</g>
<g >
</g>
<g >
</g>
<g >
</g>
<g >
</g>
<g >
</g>
<g >
</g>
<g >
</g>
<g >
</g>
<g >
</g>
<g >
</g>
<g >
</g>
<g >
</g>
<g >
</g>
<g >
</g>
<g >
</g>
<g >
</g>
<g >
</g>
<g >
</g>
<g >
</g>
<g >
</g>
<g >
</g>
<g >
</g>
<g >
</g>
<g >
</g>
<g >
</g>
<g >
</g>
<g >
</g>
<g >
</g>
<g >
</g>
<g >
</g>
</g> 
</svg>
