<?xml version="1.0" standalone="no"?>
 <!DOCTYPE svg PUBLIC "-//W3C//DTD SVG 1.1//EN" 
 "http://www.w3.org/Graphics/SVG/1.1/DTD/svg11.dtd"> 
<svg xmlns="http://www.w3.org/2000/svg" version="1.1" 
    width="9.99998cm" height="10.2057cm" viewBox="0 0 39370 40180 ">
<title>SVG Picture created as amper-B_SilkS.svg date 2022/03/06 17:49:34 </title>
  <desc>Picture generated by PCBNEW </desc>
<g style="fill:#000000; fill-opacity:1;stroke:#000000; stroke-opacity:1;
stroke-linecap:round; stroke-linejoin:round; "
 transform="translate(0 0) scale(1 1)">
</g>
<g style="fill:#000000; fill-opacity:0.0; 
stroke:#000000; stroke-width:-0.000393701; stroke-opacity:1; 
stroke-linecap:round; stroke-linejoin:round;">
</g>
<g style="fill:#840084; fill-opacity:0.0; 
stroke:#840084; stroke-width:-0.000393701; stroke-opacity:1; 
stroke-linecap:round; stroke-linejoin:round;">
</g>
<g style="fill:#840084; fill-opacity:0.0; 
stroke:#840084; stroke-width:196.85; stroke-opacity:1; 
stroke-linecap:round; stroke-linejoin:round;">
<text x="19685" y="19094.5"
textLength="-8922.1" font-size="-2624.67" lengthAdjust="spacingAndGlyphs"
text-anchor="middle" opacity="0">Amper</text>
<path d="M23809 18438
L22872 18438
" />
<path d="M23997 19000
L23340 17032
L22684 19000
" />
<path d="M22028 19000
L22028 17688
" />
<path d="M22028 17875
L21934 17782
L21747 17688
L21466 17688
L21278 17782
L21184 17969
L21184 19000
" />
<path d="M21184 17969
L21091 17782
L20903 17688
L20622 17688
L20434 17782
L20341 17969
L20341 19000
" />
<path d="M19403 17688
L19403 19656
" />
<path d="M19403 17782
L19216 17688
L18841 17688
L18653 17782
L18560 17875
L18466 18063
L18466 18625
L18560 18813
L18653 18907
L18841 19000
L19216 19000
L19403 18907
" />
<path d="M16872 18907
L17060 19000
L17435 19000
L17622 18907
L17716 18719
L17716 17969
L17622 17782
L17435 17688
L17060 17688
L16872 17782
L16779 17969
L16779 18157
L17716 18344
" />
<path d="M15935 19000
L15935 17688
" />
<path d="M15935 18063
L15841 17875
L15748 17782
L15560 17688
L15373 17688
" />
<text x="19685" y="22244.1"
textLength="-8368.02" font-size="-2624.67" lengthAdjust="spacingAndGlyphs"
text-anchor="middle" opacity="0">Rev B</text>
<path d="M22403 22150
L23059 21212
" />
<path d="M23528 22150
L23528 20181
L22778 20181
L22590 20275
L22497 20369
L22403 20556
L22403 20838
L22497 21025
L22590 21119
L22778 21212
L23528 21212
" />
<path d="M20809 22056
L20997 22150
L21372 22150
L21559 22056
L21653 21869
L21653 21119
L21559 20931
L21372 20838
L20997 20838
L20809 20931
L20716 21119
L20716 21306
L21653 21494
" />
<path d="M20059 20838
L19591 22150
L19122 20838
" />
<path d="M16216 21119
L15935 21212
L15841 21306
L15748 21494
L15748 21775
L15841 21962
L15935 22056
L16122 22150
L16872 22150
L16872 20181
L16216 20181
L16029 20275
L15935 20369
L15841 20556
L15841 20744
L15935 20931
L16029 21025
L16216 21119
L16872 21119
" />
<g >
</g>
</g>
<g style="fill:#000000; fill-opacity:0.0; 
stroke:#000000; stroke-width:196.85; stroke-opacity:1; 
stroke-linecap:round; stroke-linejoin:round;">
</g>
<g style="fill:#C2C200; fill-opacity:0.0; 
stroke:#C2C200; stroke-width:196.85; stroke-opacity:1; 
stroke-linecap:round; stroke-linejoin:round;">
</g>
<g style="fill:#C2C200; fill-opacity:0.0; 
stroke:#C2C200; stroke-width:19.685; stroke-opacity:1; 
stroke-linecap:round; stroke-linejoin:round;">
<path d="M35433 37401
L35433 2362
" />
<path d="M5905 39370
L33464 39370
" />
<path d="M3937 2362
L3937 37401
" />
<path d="M33464 393
L5905 393
" />
<path d="M35433.1 2362.2 A1968.5 1968.5 0.0 0 0 33464.6 393.701 " />
<path d="M33464.6 39370.1 A1968.5 1968.5 0.0 0 0 35433.1 37401.6 " />
<path d="M3937.01 37401.6 A1968.5 1968.5 0.0 0 0 5905.51 39370.1 " />
<path d="M5905.51 393.701 A1968.5 1968.5 0.0 0 0 3937.01 2362.2 " />
<g >
</g>
<g >
</g>
<g >
</g>
<g >
</g>
<g >
</g>
<g >
</g>
<g >
</g>
<g >
</g>
<g >
</g>
<g >
</g>
<g >
</g>
<g >
</g>
<g >
</g>
<g >
</g>
<g >
</g>
<g >
</g>
<g >
</g>
<g >
</g>
<g >
</g>
<g >
</g>
<g >
</g>
<g >
</g>
<g >
</g>
<g >
</g>
<g >
</g>
<g >
</g>
<g >
</g>
<g >
</g>
<g >
</g>
<g >
</g>
<g >
</g>
<g >
</g>
<g >
</g>
<g >
</g>
<g >
</g>
<g >
</g>
<g >
</g>
<g >
</g>
<g >
</g>
<g >
</g>
<g >
</g>
<g >
</g>
<g >
</g>
<g >
</g>
<g >
</g>
<g >
</g>
<g >
</g>
<g >
</g>
<g >
</g>
<g >
</g>
<g >
</g>
<g >
</g>
<g >
</g>
<g >
</g>
<g >
</g>
<g >
</g>
<g >
</g>
<g >
</g>
<g >
</g>
<g >
</g>
</g> 
</svg>
