<?xml version="1.0" standalone="no"?>
 <!DOCTYPE svg PUBLIC "-//W3C//DTD SVG 1.1//EN" 
 "http://www.w3.org/Graphics/SVG/1.1/DTD/svg11.dtd"> 
<svg xmlns="http://www.w3.org/2000/svg" version="1.1" 
    width="9.99998cm" height="10.2057cm" viewBox="0 0 39370 40180 ">
<title>SVG Picture created as amper-F_SilkS.svg date 2022/03/06 17:49:34 </title>
  <desc>Picture generated by PCBNEW </desc>
<g style="fill:#000000; fill-opacity:1;stroke:#000000; stroke-opacity:1;
stroke-linecap:round; stroke-linejoin:round; "
 transform="translate(0 0) scale(1 1)">
</g>
<g style="fill:#000000; fill-opacity:0.0; 
stroke:#000000; stroke-width:-0.000393701; stroke-opacity:1; 
stroke-linecap:round; stroke-linejoin:round;">
</g>
<g style="fill:#008484; fill-opacity:0.0; 
stroke:#008484; stroke-width:-0.000393701; stroke-opacity:1; 
stroke-linecap:round; stroke-linejoin:round;">
</g>
<g style="fill:#008484; fill-opacity:0.0; 
stroke:#008484; stroke-width:196.85; stroke-opacity:1; 
stroke-linecap:round; stroke-linejoin:round;">
<path d="M4921 14960
L34448 14960
" />
<path d="M15354 2755
L15354 14960
" />
<path d="M24015 2755
L15354 2755
" />
<path d="M24015 14960
L24015 2755
" />
<path d="M23031 35629
L34448 35629
" />
<path d="M34448 35629
L34448 14960
" />
<path d="M23031 14960
L23031 35629
" />
<path d="M4921 14960
L4921 35629
" />
<path d="M16338 35629
L16338 14960
" />
<path d="M4921 35629
L16338 35629
" />
</g>
<g style="fill:#008484; fill-opacity:0.0; 
stroke:#008484; stroke-width:47.2441; stroke-opacity:1; 
stroke-linecap:round; stroke-linejoin:round;">
<path d="M28740 31496
L28740 30019
" />
<path d="M28740 31732
L28740 31220
" />
<path d="M28316 31496
L28740 31496
" />
<path d="M10629 31732
L10629 31220
" />
<path d="M10206 31496
L10629 31496
" />
<path d="M10629 31496
L10629 30019
" />
</g>
<g style="fill:#008484; fill-opacity:0.0; 
stroke:#008484; stroke-width:39.3701; stroke-opacity:1; 
stroke-linecap:round; stroke-linejoin:round;">
</g>
<g style="fill:#008484; fill-opacity:1.0; 
stroke:#008484; stroke-width:39.3701; stroke-opacity:1; 
stroke-linecap:round; stroke-linejoin:round;">
<path style="fill:#008484; fill-opacity:1.0; 
stroke:#008484; stroke-width:39.3701; stroke-opacity:1; 
stroke-linecap:round; stroke-linejoin:round;fill-rule:evenodd;"
d="M 20881.9,31496.1
20488.2,31496.1
20488.2,24803.1
20881.9,24803.1
Z" /> 
<path style="fill:#008484; fill-opacity:1.0; 
stroke:#008484; stroke-width:39.3701; stroke-opacity:1; 
stroke-linecap:round; stroke-linejoin:round;fill-rule:evenodd;"
d="M 18881.9,31496.1
18488.2,31496.1
18488.2,24803.1
18881.9,24803.1
Z" /> 
<path style="fill:#008484; fill-opacity:1.0; 
stroke:#008484; stroke-width:39.3701; stroke-opacity:1; 
stroke-linecap:round; stroke-linejoin:round;fill-rule:evenodd;"
d="M 21881.9,31496.1
21488.2,31496.1
21488.2,22834.6
21881.9,22834.6
Z" /> 
<path style="fill:#008484; fill-opacity:1.0; 
stroke:#008484; stroke-width:39.3701; stroke-opacity:1; 
stroke-linecap:round; stroke-linejoin:round;fill-rule:evenodd;"
d="M 19881.9,31496.1
19488.2,31496.1
19488.2,22834.6
19881.9,22834.6
Z" /> 
<path style="fill:#008484; fill-opacity:1.0; 
stroke:#008484; stroke-width:39.3701; stroke-opacity:1; 
stroke-linecap:round; stroke-linejoin:round;fill-rule:evenodd;"
d="M 17881.9,31496.1
17488.2,31496.1
17488.2,22834.6
17881.9,22834.6
Z" /> 
</g>
<g style="fill:#008484; fill-opacity:1.0; 
stroke:#008484; stroke-width:0; stroke-opacity:1; 
stroke-linecap:round; stroke-linejoin:round;">
<path style="fill:#008484; fill-opacity:1.0; 
stroke:#008484; stroke-width:0; stroke-opacity:1; 
stroke-linecap:round; stroke-linejoin:round;fill-rule:evenodd;"
d="M 19643.3,3937.01
19018.7,4561.65
19018.7,3312.37
19643.3,3937.01
19825.6,4037.52
20309.5,4037.52
19684.8,4661.75
19684.8,4803.36
19826.5,4803.36
20550.8,4078.62
20551.2,3937.42
20550.8,3795.81
19826.5,3071.47
19684.8,3071.06
19684.8,3212.67
20309.9,3837.72
19826.9,3837.72
19784.9,3795.8
19060.2,3071.06
18918.6,3070.65
18818.9,3170.76
18818.9,4702.85
18918.6,4802.95
18918.6,4803.36
19060.2,4802.95
19825.6,4037.52
Z" /> 
<path style="fill:#008484; fill-opacity:1.0; 
stroke:#008484; stroke-width:0; stroke-opacity:1; 
stroke-linecap:round; stroke-linejoin:round;fill-rule:evenodd;"
d="M 24334,27090.3
25491.9,27089.9
25724.6,27322.5
25866.1,27322.9
25866.1,27181.4
25574.9,26890.2
25433.3,26889.8
25433.3,26890.2
24234.3,26890.6
24133.9,26990.2
24134.3,26990.6
24134.3,28521.6
24134.3,28522
24234.3,28622
25433.3,28621.6
25433.3,28622
25574.8,28621.6
25866.1,28330.4
25866.1,28188.9
25724.6,28189.3
25491.9,28421.9
24334.4,28422.3
Z" /> 
<path style="fill:#008484; fill-opacity:1.0; 
stroke:#008484; stroke-width:0; stroke-opacity:1; 
stroke-linecap:round; stroke-linejoin:round;fill-rule:evenodd;"
d="M 24334.4,27856.2
25392.2,27855.8
25433.3,27897.2
25724.6,28188.5
25866.1,28188.9
25866.1,28047.3
25574.8,27756.1
25866.1,27464.5
25866.1,27322.9
25724.6,27323.4
25433.3,27615
25392.2,27656.1
24334,27656.1
Z" /> 
<path style="fill:#008484; fill-opacity:1.0; 
stroke:#008484; stroke-width:0; stroke-opacity:1; 
stroke-linecap:round; stroke-linejoin:round;fill-rule:evenodd;"
d="M 6223.87,27908.3
6223.87,27697.5
6889.76,27031.4
7555.66,27697.5
7555.66,27907.9
6223.87,27908.3
6223.87,28108.1
7555.25,28108.1
7555.25,28521.5
7655.38,28622
7755.51,28521.9
7755.51,27756.1
7755.91,27756.1
7755.51,27614.5
7655.79,27514
7655.4,27514.4
7031.02,26889.8
6890.18,26889.8
6889.37,26889.8
6748.53,26889.8
6024.02,27614.5
6023.62,27756.1
6024.02,27756.1
6024.02,28521.9
6123.74,28622
6223.87,28521.9
6223.87,28108.1
Z" /> 
</g>
<g style="fill:#008484; fill-opacity:1.0; 
stroke:#008484; stroke-width:47.2441; stroke-opacity:1; 
stroke-linecap:round; stroke-linejoin:round;">
</g>
<g style="fill:#008484; fill-opacity:0.0; 
stroke:#008484; stroke-width:47.2441; stroke-opacity:1; 
stroke-linecap:round; stroke-linejoin:round;">
<path d="M32492 32511
L32492 32646
" />
<path d="M32090 32511
L32090 32646
" />
<circle cx="30679.1" cy="28641.7" r="472.441" /> 
<circle cx="27066.9" cy="28641.7" r="472.441" /> 
<path d="M32492 30677
L32492 30542
" />
<path d="M32090 30677
L32090 30542
" />
<path d="M27653 32511
L27653 32646
" />
<path d="M28055 32511
L28055 32646
" />
<path d="M26866 30149
L26866 30283
" />
<path d="M27267 30149
L27267 30283
" />
<circle cx="25492.1" cy="30216.5" r="472.441" /> 
<path d="M26740 31598
L26605 31598
" />
<path d="M26740 31196
L26605 31196
" />
<path d="M27267 32511
L27267 32646
" />
<path d="M26866 32511
L26866 32646
" />
<path d="M29704 31655
L30472 31655
" />
<path d="M29704 31655
L28937 31655
" />
<path d="M29704 29639
L30472 29639
" />
<path d="M29704 29639
L28346 29639
" />
<path d="M28710 32185
L30285 32185
" />
<path d="M28316 32578
L28710 32185
" />
<path d="M28316 34940
L28316 32578
" />
<path d="M30679 34940
L28316 34940
" />
<path d="M30679 32578
L30679 34940
" />
<path d="M30285 32185
L30679 32578
" />
<circle cx="12568.9" cy="28641.7" r="472.441" /> 
<circle cx="8956.69" cy="28641.7" r="472.441" /> 
<path d="M13980 32511
L13980 32646
" />
<path d="M14381 32511
L14381 32646
" />
<path d="M8630 31196
L8495 31196
" />
<path d="M8630 31598
L8495 31598
" />
<path d="M13980 30677
L13980 30542
" />
<path d="M14381 30677
L14381 30542
" />
<circle cx="7381.89" cy="30216.5" r="472.441" /> 
<path d="M8755 32511
L8755 32646
" />
<path d="M9157 32511
L9157 32646
" />
<path d="M11594 29639
L10236 29639
" />
<path d="M11594 29639
L12362 29639
" />
<path d="M11594 31655
L10826 31655
" />
<path d="M11594 31655
L12362 31655
" />
<path d="M9944 32511
L9944 32646
" />
<path d="M9543 32511
L9543 32646
" />
<path d="M9157 30149
L9157 30283
" />
<path d="M8755 30149
L8755 30283
" />
<path d="M12175 32185
L12568 32578
" />
<path d="M12568 32578
L12568 34940
" />
<path d="M12568 34940
L10206 34940
" />
<path d="M10206 34940
L10206 32578
" />
<path d="M10206 32578
L10600 32185
" />
<path d="M10600 32185
L12175 32185
" />
<path d="M25388 23421
L25253 23421
" />
<path d="M25388 23822
L25253 23822
" />
<path d="M32092 23421
L32227 23421
" />
<path d="M32092 23822
L32227 23822
" />
</g>
<g style="fill:#008484; fill-opacity:1.0; 
stroke:#008484; stroke-width:0; stroke-opacity:1; 
stroke-linecap:round; stroke-linejoin:round;">
<path style="fill:#008484; fill-opacity:1.0; 
stroke:#008484; stroke-width:0; stroke-opacity:1; 
stroke-linecap:round; stroke-linejoin:round;fill-rule:evenodd;"
d="M 23601.2,36614.1
23288.9,36926.4
23288.9,36301.8
23601.2,36614.1
23692.4,36664.3
23934.3,36664.3
23622,36976.4
23622,37047.2
23692.8,37047.2
24054.9,36684.9
24055.1,36614.3
24054.9,36543.5
23692.8,36181.3
23622,36181.1
23622,36251.9
23934.5,36564.4
23693,36564.4
23672,36543.5
23309.7,36181.1
23238.9,36180.9
23189,36231
23189,36997
23238.9,37047
23238.9,37047.2
23309.7,37047
23692.4,36664.3
Z" /> 
<path style="fill:#008484; fill-opacity:1.0; 
stroke:#008484; stroke-width:0; stroke-opacity:1; 
stroke-linecap:round; stroke-linejoin:round;fill-rule:evenodd;"
d="M 15748.2,36181
15677.4,36181.2
15315.2,36543.4
15315,36614.2
15385.8,36614.2
15698.3,36301.7
15698.3,36997.1
15748.2,37047.1
15798.2,36997.1
15798.2,36301.9
16110.3,36614.2
16181.1,36614.2
16181.1,36543.4
15818.7,36181.2
Z" /> 
<path style="fill:#008484; fill-opacity:1.0; 
stroke:#008484; stroke-width:0; stroke-opacity:1; 
stroke-linecap:round; stroke-linejoin:round;fill-rule:evenodd;"
d="M 19352.2,36690.3
19352.2,36584.9
19685.1,36251.8
20017.9,36584.9
20017.9,36690.1
19352.2,36690.3
19352.2,36790.2
20017.7,36790.2
20017.7,36996.9
20067.7,37047.1
20117.8,36997.1
20117.8,36614.2
20118,36614.2
20117.8,36543.4
20068,36493.1
20067.8,36493.3
19755.7,36181
19685.3,36181
19684.9,36181
19614.5,36181
19252.3,36543.4
19252.1,36614.2
19252.3,36614.2
19252.3,36997.1
19302.2,37047.1
19352.2,36997.1
19352.2,36790.2
Z" /> 
<path style="fill:#008484; fill-opacity:1.0; 
stroke:#008484; stroke-width:0; stroke-opacity:1; 
stroke-linecap:round; stroke-linejoin:round;fill-rule:evenodd;"
d="M 17631.6,36947.3
17581.6,36997.4
17631.6,37047.2
17801.5,37047.2
17851.5,36997.4
17801.5,36947.3
Z" /> 
<path style="fill:#008484; fill-opacity:1.0; 
stroke:#008484; stroke-width:0; stroke-opacity:1; 
stroke-linecap:round; stroke-linejoin:round;fill-rule:evenodd;"
d="M 17481.7,36754.1
17431.6,36804.1
17481.7,36854
17951.6,36854
18001.7,36804.1
17951.6,36754.1
Z" /> 
<path style="fill:#008484; fill-opacity:1.0; 
stroke:#008484; stroke-width:0; stroke-opacity:1; 
stroke-linecap:round; stroke-linejoin:round;fill-rule:evenodd;"
d="M 17716.7,36180.9
17666.6,36231
17666.6,36564
17333.6,36564
17283.5,36614.1
17333.6,36663.9
18099.5,36663.9
18149.6,36614.1
18099.5,36564
17766.5,36564
17766.5,36231
Z" /> 
<path style="fill:#008484; fill-opacity:1.0; 
stroke:#008484; stroke-width:0; stroke-opacity:1; 
stroke-linecap:round; stroke-linejoin:round;fill-rule:evenodd;"
d="M 21320.7,36664.2
21849.7,36664
21870.2,36684.8
22015.9,36830.5
22086.7,36830.7
22086.7,36759.9
21941,36614.2
22086.7,36468.3
22086.7,36397.5
22015.9,36397.7
21870.2,36543.6
21849.7,36564.1
21320.5,36564.1
Z" /> 
<path style="fill:#008484; fill-opacity:1.0; 
stroke:#008484; stroke-width:0; stroke-opacity:1; 
stroke-linecap:round; stroke-linejoin:round;fill-rule:evenodd;"
d="M 21320.5,36281.1
21899.5,36280.9
22015.9,36397.3
22086.7,36397.5
22086.7,36326.7
21941,36181
21870.2,36180.8
21870.2,36181
21270.7,36181.2
21220.4,36231.1
21220.6,36231.3
21220.6,36997.1
21220.6,36997.3
21270.7,37047.3
21870.2,37047.1
21870.2,37047.3
21941,37047.1
22086.7,36901.5
22086.7,36830.7
22015.9,36830.9
21899.5,36947.2
21320.7,36947.4
Z" /> 
<path style="fill:#008484; fill-opacity:1.0; 
stroke:#008484; stroke-width:0; stroke-opacity:1; 
stroke-linecap:round; stroke-linejoin:round;fill-rule:evenodd;"
d="M 34842.6,6637.76
34771.8,6637.96
34409.7,7000.11
34409.5,7070.91
34480.3,7070.91
34792.8,6758.41
34792.8,7453.8
34842.6,7503.85
34892.7,7453.8
34892.7,6758.61
35204.8,7070.91
35275.6,7070.91
35275.6,7000.11
34913.2,6637.96
Z" /> 
<path style="fill:#008484; fill-opacity:1.0; 
stroke:#008484; stroke-width:0; stroke-opacity:1; 
stroke-linecap:round; stroke-linejoin:round;fill-rule:evenodd;"
d="M 34757.6,9404.08
34707.5,9454.13
34757.6,9503.97
34927.5,9503.97
34977.5,9454.13
34927.5,9404.08
Z" /> 
<path style="fill:#008484; fill-opacity:1.0; 
stroke:#008484; stroke-width:0; stroke-opacity:1; 
stroke-linecap:round; stroke-linejoin:round;fill-rule:evenodd;"
d="M 34607.6,9210.8
34557.6,9260.85
34607.6,9310.69
35077.6,9310.69
35127.7,9260.85
35077.6,9210.8
Z" /> 
<path style="fill:#008484; fill-opacity:1.0; 
stroke:#008484; stroke-width:0; stroke-opacity:1; 
stroke-linecap:round; stroke-linejoin:round;fill-rule:evenodd;"
d="M 34842.6,8637.68
34792.6,8687.73
34792.6,9020.78
34459.5,9020.78
34409.5,9070.83
34459.5,9120.67
35225.5,9120.67
35275.6,9070.83
35225.5,9020.78
34892.5,9020.78
34892.5,8687.73
Z" /> 
<path style="fill:#008484; fill-opacity:1.0; 
stroke:#008484; stroke-width:0; stroke-opacity:1; 
stroke-linecap:round; stroke-linejoin:round;fill-rule:evenodd;"
d="M 34892.7,8403.91
34842.6,8453.76
34892.7,8503.81
35225.5,8503.81
35275.6,8453.76
35225.5,8403.91
Z" /> 
<path style="fill:#008484; fill-opacity:1.0; 
stroke:#008484; stroke-width:0; stroke-opacity:1; 
stroke-linecap:round; stroke-linejoin:round;fill-rule:evenodd;"
d="M 34409.5,7637.72
34409.5,7708.52
34771.8,8070.87
34409.5,8433.21
34409.5,8503.81
34480.1,8503.81
34842.4,8141.46
34842.6,8070.87
34842.4,8000.27
34480.1,7637.92
Z" /> 
<path style="fill:#008484; fill-opacity:1.0; 
stroke:#008484; stroke-width:0; stroke-opacity:1; 
stroke-linecap:round; stroke-linejoin:round;fill-rule:evenodd;"
d="M 34858.4,1716.52
34787.6,1716.72
34425.4,2078.87
34425.2,2149.67
34496,2149.67
34808.5,1837.17
34808.5,2532.56
34858.4,2582.61
34908.4,2532.56
34908.4,1837.37
35220.5,2149.67
35291.3,2149.67
35291.3,2078.87
34929,1716.72
Z" /> 
<path style="fill:#008484; fill-opacity:1.0; 
stroke:#008484; stroke-width:0; stroke-opacity:1; 
stroke-linecap:round; stroke-linejoin:round;fill-rule:evenodd;"
d="M 34858.4,2716.48
34858.4,2787.28
35170.7,3099.78
34475.3,3099.78
34425.2,3149.63
34475.3,3199.68
35170.5,3199.68
34858.4,3511.97
34858.4,3582.57
34929,3582.57
35291.3,3220.22
35291.3,3149.63
35291.3,3079.03
34929,2716.68
Z" /> 
<path style="fill:#008484; fill-opacity:1.0; 
stroke:#008484; stroke-width:0; stroke-opacity:1; 
stroke-linecap:round; stroke-linejoin:round;fill-rule:evenodd;"
d="M 34858.4,3716.44
34787.6,3716.64
34425.4,4078.99
34425.2,4149.59
34425.4,4220.18
34787.6,4582.53
34858.4,4582.73
34858.4,4511.93
34545.9,4199.43
35241.3,4199.43
35291.3,4149.59
35241.3,4099.54
34546.1,4099.54
34858.4,3787.24
Z" /> 
<path style="fill:#008484; fill-opacity:1.0; 
stroke:#008484; stroke-width:0; stroke-opacity:1; 
stroke-linecap:round; stroke-linejoin:round;fill-rule:evenodd;"
d="M 34773.3,5482.8
34723.3,5532.85
34773.3,5582.69
34943.2,5582.69
34993.3,5532.85
34943.2,5482.8
Z" /> 
<path style="fill:#008484; fill-opacity:1.0; 
stroke:#008484; stroke-width:0; stroke-opacity:1; 
stroke-linecap:round; stroke-linejoin:round;fill-rule:evenodd;"
d="M 34623.4,5289.52
34573.3,5339.57
34623.4,5389.41
35093.4,5389.41
35143.4,5339.57
35093.4,5289.52
Z" /> 
<path style="fill:#008484; fill-opacity:1.0; 
stroke:#008484; stroke-width:0; stroke-opacity:1; 
stroke-linecap:round; stroke-linejoin:round;fill-rule:evenodd;"
d="M 34858.4,4716.6
34808.3,4766.65
34808.3,5099.5
34475.3,5099.5
34425.2,5149.55
34475.3,5199.39
35241.3,5199.39
35291.3,5149.55
35241.3,5099.5
34908.2,5099.5
34908.2,4766.65
Z" /> 
</g>
<g style="fill:#008484; fill-opacity:1.0; 
stroke:#008484; stroke-width:47.2441; stroke-opacity:1; 
stroke-linecap:round; stroke-linejoin:round;">
</g>
<g style="fill:#008484; fill-opacity:0.0; 
stroke:#008484; stroke-width:47.2441; stroke-opacity:1; 
stroke-linecap:round; stroke-linejoin:round;">
<path d="M7277 23822
L7143 23822
" />
<path d="M7277 23421
L7143 23421
" />
<path d="M13981 23822
L14116 23822
" />
<path d="M13981 23421
L14116 23421
" />
<path d="M7244 5624
L7559 5309
" />
<path d="M7559 5309
L12047 5309
" />
<path d="M12047 5309
L12047 10438
" />
<path d="M12047 10438
L7244 10438
" />
<path d="M7244 10438
L7244 5624
" />
<path d="M28543 9255
L30062 9255
" />
<path d="M30062 9255
L30062 9163
" />
<path d="M28543 9255
L27023 9255
" />
<path d="M27023 9255
L27023 9163
" />
<path d="M28543 4129
L30062 4129
" />
<path d="M30062 4129
L30062 4222
" />
<path d="M28543 4129
L27023 4129
" />
<path d="M27023 4129
L27023 4222
" />
<path d="M27023 4222
L26309 4222
" />
</g>
<g style="fill:#008484; fill-opacity:1.0; 
stroke:#008484; stroke-width:0; stroke-opacity:1; 
stroke-linecap:round; stroke-linejoin:round;">
<path style="fill:#008484; fill-opacity:1.0; 
stroke:#008484; stroke-width:0; stroke-opacity:1; 
stroke-linecap:round; stroke-linejoin:round;fill-rule:evenodd;"
d="M 17100.2,21529.9
17050.1,21580
17100.2,21629.8
17270.1,21629.8
17320.1,21580
17270.1,21529.9
Z" /> 
<path style="fill:#008484; fill-opacity:1.0; 
stroke:#008484; stroke-width:0; stroke-opacity:1; 
stroke-linecap:round; stroke-linejoin:round;fill-rule:evenodd;"
d="M 16950.2,21336.7
16900.2,21386.7
16950.2,21436.6
17420.2,21436.6
17470.3,21386.7
17420.2,21336.7
Z" /> 
<path style="fill:#008484; fill-opacity:1.0; 
stroke:#008484; stroke-width:0; stroke-opacity:1; 
stroke-linecap:round; stroke-linejoin:round;fill-rule:evenodd;"
d="M 17185.2,20763.5
17135.2,20813.6
17135.2,21146.6
16802.1,21146.6
16752.1,21196.7
16802.1,21246.5
17568.1,21246.5
17618.2,21196.7
17568.1,21146.6
17235.1,21146.6
17235.1,20813.6
Z" /> 
<path style="fill:#008484; fill-opacity:1.0; 
stroke:#008484; stroke-width:0; stroke-opacity:1; 
stroke-linecap:round; stroke-linejoin:round;fill-rule:evenodd;"
d="M 17185,19763.6
17135.2,19813.7
17135.2,20146.7
16802.1,20146.7
16752.1,20196.8
16802.1,20246.6
17135.2,20246.6
17135.2,20579.6
17185,20629.7
17235.1,20579.6
17235.1,20246.6
17568.1,20246.6
17618.2,20196.8
17568.1,20146.7
17235.1,20146.7
17235.1,19813.7
Z" /> 
<path style="fill:#008484; fill-opacity:1.0; 
stroke:#008484; stroke-width:0; stroke-opacity:1; 
stroke-linecap:round; stroke-linejoin:round;fill-rule:evenodd;"
d="M 16802.1,19146.6
16752.1,19196.7
16802.1,19246.5
17568.1,19246.5
17618.2,19196.7
17568.1,19146.6
Z" /> 
<path style="fill:#008484; fill-opacity:1.0; 
stroke:#008484; stroke-width:0; stroke-opacity:1; 
stroke-linecap:round; stroke-linejoin:round;fill-rule:evenodd;"
d="M 22164.1,20196.5
21851.8,20508.8
21851.8,19884.3
22164.1,20196.5
22255.3,20246.8
22497.2,20246.8
22184.9,20558.9
22184.9,20629.7
22255.7,20629.7
22617.8,20267.3
22618,20196.8
22617.8,20126
22255.7,19763.8
22184.9,19763.6
22184.9,19834.4
22497.4,20146.9
22255.9,20146.9
22234.9,20126
21872.6,19763.6
21801.8,19763.4
21751.9,19813.5
21751.9,20579.4
21801.8,20629.5
21801.8,20629.7
21872.6,20629.5
22255.3,20246.8
Z" /> 
<path style="fill:#008484; fill-opacity:1.0; 
stroke:#008484; stroke-width:0; stroke-opacity:1; 
stroke-linecap:round; stroke-linejoin:round;fill-rule:evenodd;"
d="M 22185,18763.6
22114.2,18763.8
21752.1,19126
21751.9,19196.8
21822.7,19196.8
22135.2,18884.3
22135.2,19579.7
22185,19629.7
22235.1,19579.7
22235.1,18884.5
22547.2,19196.8
22618,19196.8
22618,19126
22255.6,18763.8
Z" /> 
<path style="fill:#008484; fill-opacity:1.0; 
stroke:#008484; stroke-width:0; stroke-opacity:1; 
stroke-linecap:round; stroke-linejoin:round;fill-rule:evenodd;"
d="M 18603.2,17309.8
18560.1,17413.3
18492,17502.4
18401.7,17571.8
18296.3,17615.4
18185.1,17629.9
18073.9,17615.4
17968.5,17571.8
17878.2,17502.4
17810.1,17413.3
17767.1,17309.8
17752.1,17196.9
17776.6,17196.9
17801.1,17196.9
17825.6,17196.9
17850.1,17196.9
17861.8,17284.2
17895,17364.2
17947.7,17433.1
18017.6,17486.8
18099.1,17520.5
18185.1,17531.7
18271.1,17520.5
18352.7,17486.8
18422.5,17433.1
18475.2,17364.2
18508.5,17284.2
18520.1,17196.9
18508.5,17109.5
18475.2,17029.5
18422.5,16960.7
18352.7,16907
18271.1,16873.3
18185.1,16862.1
18099.1,16873.3
18017.6,16907
17947.7,16960.7
17895,17029.5
17861.8,17109.5
17850.1,17196.9
17825.6,17196.9
17801.1,17196.9
17776.6,17196.9
17752.1,17196.9
17767.1,17083.9
17810.1,16980.4
17878.2,16891.4
17968.5,16821.9
18073.9,16778.4
18185.1,16763.9
18296.3,16778.4
18401.7,16821.9
18492,16891.4
18560.1,16980.4
18603.2,17083.9
18618.2,17196.9
Z" /> 
</g>
<g style="fill:#008484; fill-opacity:1.0; 
stroke:#008484; stroke-width:47.2441; stroke-opacity:1; 
stroke-linecap:round; stroke-linejoin:round;">
</g>
<g style="fill:#008484; fill-opacity:0.0; 
stroke:#008484; stroke-width:47.2441; stroke-opacity:1; 
stroke-linecap:round; stroke-linejoin:round;">
<path d="M13102 7732
L13102 7597
" />
<path d="M12700 7732
L12700 7597
" />
<path d="M13102 6015
L13102 6150
" />
<path d="M12700 6015
L12700 6150
" />
<path d="M8397 4925
L8531 4925
" />
<path d="M8397 4523
L8531 4523
" />
<path d="M10894 4925
L10759 4925
" />
<path d="M10894 4523
L10759 4523
" />
<path d="M4921 7874
L4527 7480
" />
<path d="M4527 7480
L4527 5118
" />
<path d="M4527 5118
L6889 5118
" />
<path d="M6889 5118
L6889 7480
" />
<path d="M6889 7480
L6496 7874
" />
<path d="M6496 7874
L4921 7874
" />
<path d="M13291 7597
L13291 7732
" />
<path d="M13692 7597
L13692 7732
" />
<path d="M13291 6150
L13291 6015
" />
<path d="M13692 6150
L13692 6015
" />
<path d="M7090 38256
L7090 38121
" />
<path d="M6688 38256
L6688 38121
" />
<path d="M12594 38256
L12594 38121
" />
<path d="M12996 38256
L12996 38121
" />
</g>
<g style="fill:#008484; fill-opacity:1.0; 
stroke:#008484; stroke-width:0; stroke-opacity:1; 
stroke-linecap:round; stroke-linejoin:round;">
<path style="fill:#008484; fill-opacity:1.0; 
stroke:#008484; stroke-width:0; stroke-opacity:1; 
stroke-linecap:round; stroke-linejoin:round;fill-rule:evenodd;"
d="M 18685,22647.7
18635.2,22697.7
18635.2,23030.8
18302.1,23030.8
18252.1,23080.8
18302.1,23130.7
18635.2,23130.7
18635.2,23463.7
18685,23513.8
18735.1,23463.7
18735.1,23130.7
19068.1,23130.7
19118.2,23080.8
19068.1,23030.8
18735.1,23030.8
18735.1,22697.7
Z" /> 
<path style="fill:#008484; fill-opacity:1.0; 
stroke:#008484; stroke-width:0; stroke-opacity:1; 
stroke-linecap:round; stroke-linejoin:round;fill-rule:evenodd;"
d="M 20302.1,23030.6
20252.1,23080.6
20302.1,23130.5
21068.1,23130.5
21118.2,23080.6
21068.1,23030.6
Z" /> 
<path style="fill:#008484; fill-opacity:1.0; 
stroke:#008484; stroke-width:0; stroke-opacity:1; 
stroke-linecap:round; stroke-linejoin:round;fill-rule:evenodd;"
d="M 21664.2,34383.8
21351.9,34696.1
21351.9,34071.5
21664.2,34383.8
21755.3,34434
21997.2,34434
21684.9,34746.1
21684.9,34816.9
21755.7,34816.9
22117.9,34454.6
22118.1,34384
22117.9,34313.2
21755.7,33951
21684.9,33950.8
21684.9,34021.6
21997.4,34334.1
21755.9,34334.1
21735,34313.2
21372.6,33950.8
21301.8,33950.6
21252,34000.7
21252,34766.7
21301.8,34816.7
21301.8,34816.9
21372.6,34816.7
21755.3,34434
Z" /> 
<path style="fill:#008484; fill-opacity:1.0; 
stroke:#008484; stroke-width:0; stroke-opacity:1; 
stroke-linecap:round; stroke-linejoin:round;fill-rule:evenodd;"
d="M 17685.1,33950.7
17614.3,33950.9
17252.2,34313.1
17252,34383.9
17322.8,34383.9
17635.3,34071.4
17635.3,34766.8
17685.1,34816.8
17735.2,34766.8
17735.2,34071.6
18047.3,34383.9
18118.1,34383.9
18118.1,34313.1
17755.7,33950.9
Z" /> 
<path style="fill:#008484; fill-opacity:1.0; 
stroke:#008484; stroke-width:0; stroke-opacity:1; 
stroke-linecap:round; stroke-linejoin:round;fill-rule:evenodd;"
d="M 19352.2,34460
19352.2,34354.6
19685,34021.5
20017.9,34354.6
20017.9,34459.8
19352.2,34460
19352.2,34559.9
20017.7,34559.9
20017.7,34766.6
20067.7,34816.8
20117.8,34766.8
20117.8,34383.9
20118,34383.9
20117.8,34313.1
20067.9,34262.8
20067.7,34263
19755.6,33950.7
19685.3,33950.7
19684.8,33950.7
19614.4,33950.7
19252.3,34313.1
19252.1,34383.9
19252.3,34383.9
19252.3,34766.8
19302.1,34816.8
19352.2,34766.8
19352.2,34559.9
Z" /> 
<path style="fill:#008484; fill-opacity:1.0; 
stroke:#008484; stroke-width:0; stroke-opacity:1; 
stroke-linecap:round; stroke-linejoin:round;fill-rule:evenodd;"
d="M 18600.1,34717
18550.1,34767.1
18600.1,34816.9
18770,34816.9
18820,34767.1
18770,34717
Z" /> 
<path style="fill:#008484; fill-opacity:1.0; 
stroke:#008484; stroke-width:0; stroke-opacity:1; 
stroke-linecap:round; stroke-linejoin:round;fill-rule:evenodd;"
d="M 18450.2,34523.7
18400.1,34573.8
18450.2,34623.6
18920.1,34623.6
18970.2,34573.8
18920.1,34523.7
Z" /> 
<path style="fill:#008484; fill-opacity:1.0; 
stroke:#008484; stroke-width:0; stroke-opacity:1; 
stroke-linecap:round; stroke-linejoin:round;fill-rule:evenodd;"
d="M 18685.1,33950.6
18635.1,34000.7
18635.1,34333.7
18302,34333.7
18252,34383.8
18302,34433.6
19068,34433.6
19118.1,34383.8
19068,34333.7
18735,34333.7
18735,34000.7
Z" /> 
<path style="fill:#008484; fill-opacity:1.0; 
stroke:#008484; stroke-width:0; stroke-opacity:1; 
stroke-linecap:round; stroke-linejoin:round;fill-rule:evenodd;"
d="M 20352.2,34433.9
20881.2,34433.7
20901.7,34454.5
21047.4,34600.1
21118.2,34600.3
21118.2,34529.5
20972.5,34383.9
21118.2,34238
21118.2,34167.2
21047.4,34167.4
20901.7,34313.3
20881.2,34333.8
20352,34333.8
Z" /> 
<path style="fill:#008484; fill-opacity:1.0; 
stroke:#008484; stroke-width:0; stroke-opacity:1; 
stroke-linecap:round; stroke-linejoin:round;fill-rule:evenodd;"
d="M 20352,34050.8
20931,34050.6
21047.4,34167
21118.2,34167.2
21118.2,34096.4
20972.5,33950.7
20901.7,33950.5
20901.7,33950.7
20302.1,33950.9
20251.9,34000.8
20252.1,34001
20252.1,34766.8
20252.1,34767
20302.1,34817
20901.7,34816.8
20901.7,34817
20972.5,34816.8
21118.2,34671.1
21118.2,34600.3
21047.4,34600.6
20931,34716.9
20352.2,34717.1
Z" /> 
</g>
<g style="fill:#008484; fill-opacity:1.0; 
stroke:#008484; stroke-width:47.2441; stroke-opacity:1; 
stroke-linecap:round; stroke-linejoin:round;">
</g>
<g style="fill:#008484; fill-opacity:0.0; 
stroke:#008484; stroke-width:47.2441; stroke-opacity:1; 
stroke-linecap:round; stroke-linejoin:round;">
<path d="M28610 3744
L28475 3744
" />
<path d="M28610 3342
L28475 3342
" />
</g>
<g style="fill:#008484; fill-opacity:1.0; 
stroke:#008484; stroke-width:0; stroke-opacity:1; 
stroke-linecap:round; stroke-linejoin:round;">
<path style="fill:#008484; fill-opacity:1.0; 
stroke:#008484; stroke-width:0; stroke-opacity:1; 
stroke-linecap:round; stroke-linejoin:round;fill-rule:evenodd;"
d="M 5984.54,24763.5
5621.99,25126
5621.79,25196.8
5692.59,25196.8
6055.14,24834.3
6417.69,25196.8
6488.49,25196.8
6488.28,25126
6125.73,24763.5
6055.34,24763.5
6054.93,24763.5
Z" /> 
<path style="fill:#008484; fill-opacity:1.0; 
stroke:#008484; stroke-width:0; stroke-opacity:1; 
stroke-linecap:round; stroke-linejoin:round;fill-rule:evenodd;"
d="M 15134.1,25630.2
14771.6,25267.7
14771.4,25196.9
14842.2,25196.9
15204.7,25559.4
15567.3,25196.9
15638.1,25196.9
15637.9,25267.7
15275.3,25630.2
15204.9,25630.2
15204.5,25630.2
Z" /> 
<path style="fill:#008484; fill-opacity:1.0; 
stroke:#008484; stroke-width:0; stroke-opacity:1; 
stroke-linecap:round; stroke-linejoin:round;fill-rule:evenodd;"
d="M 24094.8,24763.5
23732.2,25126
23732,25196.8
23802.8,25196.8
24165.4,24834.3
24527.9,25196.8
24598.7,25196.8
24598.5,25126
24236,24763.5
24165.6,24763.5
24165.2,24763.5
Z" /> 
<path style="fill:#008484; fill-opacity:1.0; 
stroke:#008484; stroke-width:0; stroke-opacity:1; 
stroke-linecap:round; stroke-linejoin:round;fill-rule:evenodd;"
d="M 33244.4,25630.2
32881.8,25267.7
32881.6,25196.9
32952.4,25196.9
33315,25559.4
33677.5,25196.9
33748.3,25196.9
33748.1,25267.7
33385.6,25630.2
33315.2,25630.2
33314.8,25630.2
Z" /> 
</g>
<g style="fill:#008484; fill-opacity:1.0; 
stroke:#008484; stroke-width:47.2441; stroke-opacity:1; 
stroke-linecap:round; stroke-linejoin:round;">
</g>
<g style="fill:#008484; fill-opacity:0.0; 
stroke:#008484; stroke-width:47.2441; stroke-opacity:1; 
stroke-linecap:round; stroke-linejoin:round;">
<path d="M25523 10917
L24476 10917
" />
<path d="M25523 10917
L25523 2893
" />
<path d="M25523 2893
L24476 2893
" />
<path d="M24476 10917
L24476 2893
" />
<path d="M24476 11940
L24476 11417
" />
<path d="M25000 11940
L24476 11940
" />
<path d="M32086 2893
L32610 2893
" />
<path d="M32610 2893
L32610 3417
" />
<path d="M32610 3917
L32610 11940
" />
<path d="M31562 11940
L32610 11940
" />
<path d="M31562 3917
L31562 11940
" />
<path d="M31562 3917
L32610 3917
" />
</g>
<g style="fill:#008484; fill-opacity:0.0; 
stroke:#008484; stroke-width:59.0551; stroke-opacity:1; 
stroke-linecap:round; stroke-linejoin:round;">
<g transform="rotate(-90 32854.3 32578.7)">
<text x="32854.3" y="32775.6"
textLength="1024.56" font-size="524.934" lengthAdjust="spacingAndGlyphs"
text-anchor="middle" opacity="0">C9</text>
</g>
<path d="M32994 32644
L33013 32663
L33032 32719
L33032 32756
L33013 32813
L32976 32850
L32938 32869
L32863 32888
L32807 32888
L32732 32869
L32694 32850
L32657 32813
L32638 32756
L32638 32719
L32657 32663
L32676 32644
" />
<path d="M33032 32456
L33032 32381
L33013 32344
L32994 32325
L32938 32288
L32863 32269
L32713 32269
L32676 32288
L32657 32306
L32638 32344
L32638 32419
L32657 32456
L32676 32475
L32713 32494
L32807 32494
L32844 32475
L32863 32456
L32882 32419
L32882 32344
L32863 32306
L32844 32288
L32807 32269
" />
<text x="30679.1" y="28052"
textLength="1145.39" font-size="524.934" lengthAdjust="spacingAndGlyphs"
text-anchor="middle" opacity="0">TP6</text>
<path d="M30182 27639
L30407 27639
" />
<path d="M30294 28033
L30294 27639
" />
<path d="M30538 28033
L30538 27639
L30688 27639
L30726 27658
L30744 27677
L30763 27714
L30763 27770
L30744 27808
L30726 27826
L30688 27845
L30538 27845
" />
<path d="M31100 27639
L31025 27639
L30988 27658
L30969 27677
L30932 27733
L30913 27808
L30913 27958
L30932 27995
L30950 28014
L30988 28033
L31063 28033
L31100 28014
L31119 27995
L31138 27958
L31138 27864
L31119 27826
L31100 27808
L31063 27789
L30988 27789
L30950 27808
L30932 27826
L30913 27864
" />
<text x="27066.9" y="28052"
textLength="1145.39" font-size="524.934" lengthAdjust="spacingAndGlyphs"
text-anchor="middle" opacity="0">TP4</text>
<path d="M26570 27639
L26795 27639
" />
<path d="M26682 28033
L26682 27639
" />
<path d="M26926 28033
L26926 27639
L27076 27639
L27113 27658
L27132 27677
L27151 27714
L27151 27770
L27132 27808
L27113 27826
L27076 27845
L26926 27845
" />
<path d="M27488 27770
L27488 28033
" />
<path d="M27395 27620
L27301 27901
L27544 27901
" />
<g transform="rotate(-90 31728.3 30610.2)">
<text x="31728.3" y="30807.1"
textLength="1220.38" font-size="524.934" lengthAdjust="spacingAndGlyphs"
text-anchor="middle" opacity="0">R14</text>
</g>
<path d="M31906 30863
L31718 30994
" />
<path d="M31906 31088
L31512 31088
L31512 30938
L31531 30900
L31550 30882
L31587 30863
L31643 30863
L31681 30882
L31700 30900
L31718 30938
L31718 31088
" />
<path d="M31906 30488
L31906 30713
" />
<path d="M31906 30600
L31512 30600
L31568 30638
L31606 30675
L31625 30713
" />
<path d="M31643 30150
L31906 30150
" />
<path d="M31494 30244
L31775 30338
L31775 30094
" />
<g transform="rotate(-90 27854.3 33285.4)">
<text x="27854.3" y="33482.3"
textLength="845.426" font-size="524.934" lengthAdjust="spacingAndGlyphs"
text-anchor="end" opacity="0">C7</text>
</g>
<path d="M27994 33773
L28013 33792
L28032 33848
L28032 33886
L28013 33942
L27976 33979
L27938 33998
L27863 34017
L27807 34017
L27732 33998
L27694 33979
L27657 33942
L27638 33886
L27638 33848
L27657 33792
L27676 33773
" />
<path d="M27638 33642
L27638 33380
L28032 33548
" />
<g transform="rotate(-90 27629.9 30216.5)">
<text x="27629.9" y="30413.4"
textLength="1220.38" font-size="524.934" lengthAdjust="spacingAndGlyphs"
text-anchor="middle" opacity="0">R11</text>
</g>
<path d="M27808 30469
L27620 30600
" />
<path d="M27808 30694
L27414 30694
L27414 30544
L27433 30507
L27451 30488
L27489 30469
L27545 30469
L27583 30488
L27601 30507
L27620 30544
L27620 30694
" />
<path d="M27808 30094
L27808 30319
" />
<path d="M27808 30207
L27414 30207
L27470 30244
L27508 30282
L27526 30319
" />
<path d="M27808 29719
L27808 29944
" />
<path d="M27808 29832
L27414 29832
L27470 29869
L27508 29907
L27526 29944
" />
<text x="25492.1" y="29626.8"
textLength="1145.39" font-size="524.934" lengthAdjust="spacingAndGlyphs"
text-anchor="middle" opacity="0">TP2</text>
<path d="M24995 29214
L25220 29214
" />
<path d="M25107 29608
L25107 29214
" />
<path d="M25351 29608
L25351 29214
L25501 29214
L25538 29233
L25557 29251
L25576 29289
L25576 29345
L25557 29383
L25538 29401
L25501 29420
L25351 29420
" />
<path d="M25726 29251
L25745 29233
L25782 29214
L25876 29214
L25913 29233
L25932 29251
L25951 29289
L25951 29326
L25932 29383
L25707 29608
L25951 29608
" />
<text x="27342.5" y="31592.5"
textLength="845.426" font-size="524.934" lengthAdjust="spacingAndGlyphs"
text-anchor="start" opacity="0">R8</text>
<path d="M27699 31573
L27568 31386
" />
<path d="M27474 31573
L27474 31180
L27624 31180
L27662 31198
L27680 31217
L27699 31255
L27699 31311
L27680 31348
L27662 31367
L27624 31386
L27474 31386
" />
<path d="M27924 31348
L27887 31330
L27868 31311
L27849 31273
L27849 31255
L27868 31217
L27887 31198
L27924 31180
L27999 31180
L28037 31198
L28055 31217
L28074 31255
L28074 31273
L28055 31311
L28037 31330
L27999 31348
L27924 31348
L27887 31367
L27868 31386
L27849 31423
L27849 31498
L27868 31536
L27887 31555
L27924 31573
L27999 31573
L28037 31555
L28055 31536
L28074 31498
L28074 31423
L28055 31386
L28037 31367
L27999 31348
" />
<g transform="rotate(-90 27066.9 33324.8)">
<text x="27066.9" y="33521.7"
textLength="1220.38" font-size="524.934" lengthAdjust="spacingAndGlyphs"
text-anchor="end" opacity="0">R12</text>
</g>
<path d="M27245 34188
L27057 34319
" />
<path d="M27245 34413
L26851 34413
L26851 34263
L26870 34225
L26888 34206
L26926 34188
L26982 34188
L27020 34206
L27038 34225
L27057 34263
L27057 34413
" />
<path d="M27245 33813
L27245 34038
" />
<path d="M27245 33925
L26851 33925
L26907 33963
L26945 34000
L26963 34038
" />
<path d="M26888 33663
L26870 33644
L26851 33606
L26851 33513
L26870 33475
L26888 33456
L26926 33438
L26963 33438
L27020 33456
L27245 33681
L27245 33438
" />
<text x="29704.7" y="29505.9"
textLength="864.173" font-size="524.934" lengthAdjust="spacingAndGlyphs"
text-anchor="middle" opacity="0">Q2</text>
<path d="M29667 29524
L29629 29505
L29592 29468
L29535 29412
L29498 29393
L29461 29393
" />
<path d="M29479 29487
L29442 29468
L29404 29430
L29386 29355
L29386 29224
L29404 29149
L29442 29112
L29479 29093
L29554 29093
L29592 29112
L29629 29149
L29648 29224
L29648 29355
L29629 29430
L29592 29468
L29554 29487
L29479 29487
" />
<path d="M29798 29130
L29817 29112
L29854 29093
L29948 29093
L29985 29112
L30004 29130
L30023 29168
L30023 29205
L30004 29262
L29779 29487
L30023 29487
" />
<g transform="rotate(-90 31003.9 33757.9)">
<text x="31003.9" y="33954.7"
textLength="1220.38" font-size="524.934" lengthAdjust="spacingAndGlyphs"
text-anchor="middle" opacity="0">C11</text>
</g>
<path d="M31144 34010
L31163 34029
L31182 34085
L31182 34123
L31163 34179
L31125 34217
L31088 34235
L31013 34254
L30957 34254
L30882 34235
L30844 34217
L30807 34179
L30788 34123
L30788 34085
L30807 34029
L30825 34010
" />
<path d="M31182 33636
L31182 33860
" />
<path d="M31182 33748
L30788 33748
L30844 33785
L30882 33823
L30900 33860
" />
<path d="M31182 33261
L31182 33486
" />
<path d="M31182 33373
L30788 33373
L30844 33411
L30882 33448
L30900 33486
" />
<text x="12568.9" y="28052"
textLength="1145.39" font-size="524.934" lengthAdjust="spacingAndGlyphs"
text-anchor="middle" opacity="0">TP5</text>
<path d="M12072 27639
L12297 27639
" />
<path d="M12184 28033
L12184 27639
" />
<path d="M12428 28033
L12428 27639
L12578 27639
L12615 27658
L12634 27677
L12653 27714
L12653 27770
L12634 27808
L12615 27826
L12578 27845
L12428 27845
" />
<path d="M13009 27639
L12821 27639
L12803 27826
L12821 27808
L12859 27789
L12953 27789
L12990 27808
L13009 27826
L13028 27864
L13028 27958
L13009 27995
L12990 28014
L12953 28033
L12859 28033
L12821 28014
L12803 27995
" />
<text x="8956.69" y="28052"
textLength="1145.39" font-size="524.934" lengthAdjust="spacingAndGlyphs"
text-anchor="middle" opacity="0">TP3</text>
<path d="M8459 27639
L8684 27639
" />
<path d="M8572 28033
L8572 27639
" />
<path d="M8816 28033
L8816 27639
L8966 27639
L9003 27658
L9022 27677
L9041 27714
L9041 27770
L9022 27808
L9003 27826
L8966 27845
L8816 27845
" />
<path d="M9172 27639
L9416 27639
L9284 27789
L9341 27789
L9378 27808
L9397 27826
L9416 27864
L9416 27958
L9397 27995
L9378 28014
L9341 28033
L9228 28033
L9191 28014
L9172 27995
" />
<g transform="rotate(-90 14744.1 32578.7)">
<text x="14744.1" y="32775.6"
textLength="845.426" font-size="524.934" lengthAdjust="spacingAndGlyphs"
text-anchor="middle" opacity="0">C8</text>
</g>
<path d="M14884 32644
L14903 32663
L14922 32719
L14922 32756
L14903 32813
L14865 32850
L14828 32869
L14753 32888
L14697 32888
L14622 32869
L14584 32850
L14547 32813
L14528 32756
L14528 32719
L14547 32663
L14565 32644
" />
<path d="M14697 32419
L14678 32456
L14659 32475
L14622 32494
L14603 32494
L14565 32475
L14547 32456
L14528 32419
L14528 32344
L14547 32306
L14565 32288
L14603 32269
L14622 32269
L14659 32288
L14678 32306
L14697 32344
L14697 32419
L14715 32456
L14734 32475
L14772 32494
L14847 32494
L14884 32475
L14903 32456
L14922 32419
L14922 32344
L14903 32306
L14884 32288
L14847 32269
L14772 32269
L14734 32288
L14715 32306
L14697 32344
" />
<text x="9232.28" y="31592.5"
textLength="845.426" font-size="524.934" lengthAdjust="spacingAndGlyphs"
text-anchor="start" opacity="0">R7</text>
<path d="M9589 31573
L9458 31386
" />
<path d="M9364 31573
L9364 31180
L9514 31180
L9551 31198
L9570 31217
L9589 31255
L9589 31311
L9570 31348
L9551 31367
L9514 31386
L9364 31386
" />
<path d="M9720 31180
L9983 31180
L9814 31573
" />
<g transform="rotate(-90 13618.1 30610.2)">
<text x="13618.1" y="30807.1"
textLength="1220.38" font-size="524.934" lengthAdjust="spacingAndGlyphs"
text-anchor="middle" opacity="0">R13</text>
</g>
<path d="M13796 30863
L13608 30994
" />
<path d="M13796 31088
L13402 31088
L13402 30938
L13421 30900
L13440 30882
L13477 30863
L13533 30863
L13571 30882
L13589 30900
L13608 30938
L13608 31088
" />
<path d="M13796 30488
L13796 30713
" />
<path d="M13796 30600
L13402 30600
L13458 30638
L13496 30675
L13514 30713
" />
<path d="M13402 30357
L13402 30113
L13552 30244
L13552 30188
L13571 30150
L13589 30132
L13627 30113
L13721 30113
L13758 30132
L13777 30150
L13796 30188
L13796 30300
L13777 30338
L13758 30357
" />
<text x="7381.89" y="29626.8"
textLength="1145.39" font-size="524.934" lengthAdjust="spacingAndGlyphs"
text-anchor="middle" opacity="0">TP1</text>
<path d="M6885 29214
L7110 29214
" />
<path d="M6997 29608
L6997 29214
" />
<path d="M7241 29608
L7241 29214
L7391 29214
L7428 29233
L7447 29251
L7466 29289
L7466 29345
L7447 29383
L7428 29401
L7391 29420
L7241 29420
" />
<path d="M7841 29608
L7616 29608
" />
<path d="M7728 29608
L7728 29214
L7691 29270
L7653 29308
L7616 29326
" />
<g transform="rotate(-90 8956.69 33324.8)">
<text x="8956.69" y="33521.7"
textLength="1220.38" font-size="524.934" lengthAdjust="spacingAndGlyphs"
text-anchor="end" opacity="0">R10</text>
</g>
<path d="M9134 34188
L8947 34319
" />
<path d="M9134 34413
L8741 34413
L8741 34263
L8759 34225
L8778 34206
L8816 34188
L8872 34188
L8909 34206
L8928 34225
L8947 34263
L8947 34413
" />
<path d="M9134 33813
L9134 34038
" />
<path d="M9134 33925
L8741 33925
L8797 33963
L8834 34000
L8853 34038
" />
<path d="M8741 33569
L8741 33531
L8759 33494
L8778 33475
L8816 33456
L8891 33438
L8984 33438
L9059 33456
L9097 33475
L9116 33494
L9134 33531
L9134 33569
L9116 33606
L9097 33625
L9059 33644
L8984 33663
L8891 33663
L8816 33644
L8778 33625
L8759 33606
L8741 33569
" />
<text x="11594.5" y="29505.9"
textLength="864.173" font-size="524.934" lengthAdjust="spacingAndGlyphs"
text-anchor="middle" opacity="0">Q1</text>
<path d="M11556 29524
L11519 29505
L11482 29468
L11425 29412
L11388 29393
L11350 29393
" />
<path d="M11369 29487
L11332 29468
L11294 29430
L11275 29355
L11275 29224
L11294 29149
L11332 29112
L11369 29093
L11444 29093
L11482 29112
L11519 29149
L11538 29224
L11538 29355
L11519 29430
L11482 29468
L11444 29487
L11369 29487
" />
<path d="M11913 29487
L11688 29487
" />
<path d="M11800 29487
L11800 29093
L11763 29149
L11725 29187
L11688 29205
" />
<g transform="rotate(-90 9744.09 33285.4)">
<text x="9744.09" y="33482.3"
textLength="845.426" font-size="524.934" lengthAdjust="spacingAndGlyphs"
text-anchor="end" opacity="0">C6</text>
</g>
<path d="M9884 33773
L9903 33792
L9922 33848
L9922 33886
L9903 33942
L9865 33979
L9828 33998
L9753 34017
L9697 34017
L9622 33998
L9584 33979
L9547 33942
L9528 33886
L9528 33848
L9547 33792
L9565 33773
" />
<path d="M9528 33436
L9528 33511
L9547 33548
L9565 33567
L9622 33605
L9697 33623
L9847 33623
L9884 33605
L9903 33586
L9922 33548
L9922 33473
L9903 33436
L9884 33417
L9847 33398
L9753 33398
L9715 33417
L9697 33436
L9678 33473
L9678 33548
L9697 33586
L9715 33605
L9753 33623
" />
<g transform="rotate(-90 9519.69 30216.5)">
<text x="9519.69" y="30413.4"
textLength="845.426" font-size="524.934" lengthAdjust="spacingAndGlyphs"
text-anchor="middle" opacity="0">R9</text>
</g>
<path d="M9697 30282
L9510 30413
" />
<path d="M9697 30507
L9304 30507
L9304 30357
L9322 30319
L9341 30300
L9379 30282
L9435 30282
L9472 30300
L9491 30319
L9510 30357
L9510 30507
" />
<path d="M9697 30094
L9697 30019
L9679 29982
L9660 29963
L9604 29925
L9529 29907
L9379 29907
L9341 29925
L9322 29944
L9304 29982
L9304 30057
L9322 30094
L9341 30113
L9379 30132
L9472 30132
L9510 30113
L9529 30094
L9547 30057
L9547 29982
L9529 29944
L9510 29925
L9472 29907
" />
<g transform="rotate(-90 12893.7 33757.9)">
<text x="12893.7" y="33954.7"
textLength="1220.38" font-size="524.934" lengthAdjust="spacingAndGlyphs"
text-anchor="middle" opacity="0">C10</text>
</g>
<path d="M13034 34010
L13053 34029
L13071 34085
L13071 34123
L13053 34179
L13015 34217
L12978 34235
L12903 34254
L12846 34254
L12771 34235
L12734 34217
L12696 34179
L12678 34123
L12678 34085
L12696 34029
L12715 34010
" />
<path d="M13071 33636
L13071 33860
" />
<path d="M13071 33748
L12678 33748
L12734 33785
L12771 33823
L12790 33860
" />
<path d="M12678 33392
L12678 33354
L12696 33317
L12715 33298
L12753 33279
L12828 33261
L12921 33261
L12996 33279
L13034 33298
L13053 33317
L13071 33354
L13071 33392
L13053 33429
L13034 33448
L12996 33467
L12921 33486
L12828 33486
L12753 33467
L12715 33448
L12696 33429
L12678 33392
" />
<text x="7086.61" y="10236.2"
textLength="864.173" font-size="524.934" lengthAdjust="spacingAndGlyphs"
text-anchor="end" opacity="0">U1</text>
<path d="M6354 9823
L6354 10142
L6373 10179
L6392 10198
L6429 10217
L6504 10217
L6542 10198
L6560 10179
L6579 10142
L6579 9823
" />
<path d="M6973 10217
L6748 10217
" />
<path d="M6860 10217
L6860 9823
L6823 9880
L6785 9917
L6748 9936
" />
<text x="30315" y="3740.16"
textLength="864.173" font-size="524.934" lengthAdjust="spacingAndGlyphs"
text-anchor="middle" opacity="0">U7</text>
<path d="M30014 3327
L30014 3646
L30033 3683
L30052 3702
L30089 3721
L30164 3721
L30202 3702
L30221 3683
L30239 3646
L30239 3327
" />
<path d="M30389 3327
L30652 3327
L30483 3721
" />
<g transform="rotate(-90 12901.6 8452.76)">
<text x="12901.6" y="8649.61"
textLength="845.426" font-size="524.934" lengthAdjust="spacingAndGlyphs"
text-anchor="end" opacity="0">C1</text>
</g>
<path d="M13042 8941
L13060 8959
L13079 9016
L13079 9053
L13060 9109
L13023 9147
L12985 9166
L12910 9184
L12854 9184
L12779 9166
L12742 9147
L12704 9109
L12685 9053
L12685 9016
L12704 8959
L12723 8941
" />
<path d="M13079 8566
L13079 8791
" />
<path d="M13079 8678
L12685 8678
L12742 8716
L12779 8753
L12798 8791
" />
<g transform="rotate(-90 13464.6 5295.28)">
<text x="13464.6" y="5492.13"
textLength="845.426" font-size="524.934" lengthAdjust="spacingAndGlyphs"
text-anchor="start" opacity="0">C2</text>
</g>
<path d="M13605 4938
L13623 4956
L13642 5013
L13642 5050
L13623 5106
L13586 5144
L13548 5163
L13473 5181
L13417 5181
L13342 5163
L13305 5144
L13267 5106
L13248 5050
L13248 5013
L13267 4956
L13286 4938
" />
<path d="M13286 4788
L13267 4769
L13248 4731
L13248 4638
L13267 4600
L13286 4581
L13323 4563
L13361 4563
L13417 4581
L13642 4806
L13642 4563
" />
<text x="8464.57" y="4358.27"
textLength="845.426" font-size="524.934" lengthAdjust="spacingAndGlyphs"
text-anchor="middle" opacity="0">C3</text>
<path d="M8398 4302
L8380 4320
L8323 4339
L8286 4339
L8230 4320
L8192 4283
L8173 4245
L8155 4170
L8155 4114
L8173 4039
L8192 4002
L8230 3964
L8286 3945
L8323 3945
L8380 3964
L8398 3983
" />
<path d="M8530 3945
L8773 3945
L8642 4095
L8698 4095
L8736 4114
L8755 4133
L8773 4170
L8773 4264
L8755 4302
L8736 4320
L8698 4339
L8586 4339
L8548 4320
L8530 4302
" />
<text x="10826.8" y="4330.71"
textLength="845.426" font-size="524.934" lengthAdjust="spacingAndGlyphs"
text-anchor="middle" opacity="0">C4</text>
<path d="M10761 4274
L10742 4293
L10686 4311
L10648 4311
L10592 4293
L10554 4255
L10536 4218
L10517 4143
L10517 4086
L10536 4011
L10554 3974
L10592 3937
L10648 3918
L10686 3918
L10742 3937
L10761 3955
" />
<path d="M11098 4049
L11098 4311
" />
<path d="M11004 3899
L10911 4180
L11154 4180
" />
<text x="4527.56" y="4921.26"
textLength="845.426" font-size="524.934" lengthAdjust="spacingAndGlyphs"
text-anchor="start" opacity="0">C5</text>
<path d="M4884 4865
L4865 4883
L4809 4902
L4772 4902
L4715 4883
L4678 4846
L4659 4808
L4640 4733
L4640 4677
L4659 4602
L4678 4565
L4715 4527
L4772 4508
L4809 4508
L4865 4527
L4884 4546
" />
<path d="M5240 4508
L5053 4508
L5034 4696
L5053 4677
L5090 4658
L5184 4658
L5222 4677
L5240 4696
L5259 4733
L5259 4827
L5240 4865
L5222 4883
L5184 4902
L5090 4902
L5053 4883
L5034 4865
" />
<g transform="rotate(-90 13492.1 8452.76)">
<text x="13492.1" y="8649.61"
textLength="845.426" font-size="524.934" lengthAdjust="spacingAndGlyphs"
text-anchor="end" opacity="0">R5</text>
</g>
<path d="M13670 8941
L13482 9072
" />
<path d="M13670 9166
L13276 9166
L13276 9016
L13295 8978
L13314 8959
L13351 8941
L13407 8941
L13445 8959
L13464 8978
L13482 9016
L13482 9166
" />
<path d="M13276 8584
L13276 8772
L13464 8791
L13445 8772
L13426 8734
L13426 8641
L13445 8603
L13464 8584
L13501 8566
L13595 8566
L13632 8584
L13651 8603
L13670 8641
L13670 8734
L13651 8772
L13632 8791
" />
<g transform="rotate(-90 12901.6 5295.28)">
<text x="12901.6" y="5492.13"
textLength="845.426" font-size="524.934" lengthAdjust="spacingAndGlyphs"
text-anchor="start" opacity="0">R6</text>
</g>
<path d="M13079 4938
L12892 5069
" />
<path d="M13079 5163
L12685 5163
L12685 5013
L12704 4975
L12723 4956
L12760 4938
L12817 4938
L12854 4956
L12873 4975
L12892 5013
L12892 5163
" />
<path d="M12685 4600
L12685 4675
L12704 4713
L12723 4731
L12779 4769
L12854 4788
L13004 4788
L13042 4769
L13060 4750
L13079 4713
L13079 4638
L13060 4600
L13042 4581
L13004 4563
L12910 4563
L12873 4581
L12854 4600
L12835 4638
L12835 4713
L12854 4750
L12873 4769
L12910 4788
" />
<g transform="rotate(-90 6299.21 38189)">
<text x="6299.21" y="38385.8"
textLength="1220.38" font-size="524.934" lengthAdjust="spacingAndGlyphs"
text-anchor="middle" opacity="0">R15</text>
</g>
<path d="M6477 38442
L6289 38573
" />
<path d="M6477 38667
L6083 38667
L6083 38517
L6102 38479
L6121 38460
L6158 38442
L6214 38442
L6252 38460
L6271 38479
L6289 38517
L6289 38667
" />
<path d="M6477 38067
L6477 38292
" />
<path d="M6477 38179
L6083 38179
L6139 38217
L6177 38254
L6196 38292
" />
<path d="M6083 37710
L6083 37898
L6271 37917
L6252 37898
L6233 37860
L6233 37767
L6252 37729
L6271 37710
L6308 37692
L6402 37692
L6439 37710
L6458 37729
L6477 37767
L6477 37860
L6458 37898
L6439 37917
" />
<g transform="rotate(-90 13385.8 38189)">
<text x="13385.8" y="38385.8"
textLength="1220.38" font-size="524.934" lengthAdjust="spacingAndGlyphs"
text-anchor="middle" opacity="0">R16</text>
</g>
<path d="M13563 38442
L13376 38573
" />
<path d="M13563 38667
L13170 38667
L13170 38517
L13188 38479
L13207 38460
L13245 38442
L13301 38442
L13338 38460
L13357 38479
L13376 38517
L13376 38667
" />
<path d="M13563 38067
L13563 38292
" />
<path d="M13563 38179
L13170 38179
L13226 38217
L13263 38254
L13282 38292
" />
<path d="M13170 37729
L13170 37804
L13188 37842
L13207 37860
L13263 37898
L13338 37917
L13488 37917
L13526 37898
L13545 37879
L13563 37842
L13563 37767
L13545 37729
L13526 37710
L13488 37692
L13395 37692
L13357 37710
L13338 37729
L13320 37767
L13320 37842
L13338 37879
L13357 37898
L13395 37917
" />
<text x="27755.9" y="3740.16"
textLength="1220.38" font-size="524.934" lengthAdjust="spacingAndGlyphs"
text-anchor="end" opacity="0">C12</text>
<path d="M26892 3683
L26873 3702
L26817 3721
L26780 3721
L26723 3702
L26686 3665
L26667 3627
L26648 3552
L26648 3496
L26667 3421
L26686 3383
L26723 3346
L26780 3327
L26817 3327
L26873 3346
L26892 3365
" />
<path d="M27267 3721
L27042 3721
" />
<path d="M27155 3721
L27155 3327
L27117 3383
L27080 3421
L27042 3440
" />
<path d="M27417 3365
L27436 3346
L27473 3327
L27567 3327
L27605 3346
L27623 3365
L27642 3402
L27642 3440
L27623 3496
L27398 3721
L27642 3721
" />
<g >
</g>
</g>
<g style="fill:#000000; fill-opacity:0.0; 
stroke:#000000; stroke-width:59.0551; stroke-opacity:1; 
stroke-linecap:round; stroke-linejoin:round;">
</g>
<g style="fill:#C2C200; fill-opacity:0.0; 
stroke:#C2C200; stroke-width:59.0551; stroke-opacity:1; 
stroke-linecap:round; stroke-linejoin:round;">
</g>
<g style="fill:#C2C200; fill-opacity:0.0; 
stroke:#C2C200; stroke-width:19.685; stroke-opacity:1; 
stroke-linecap:round; stroke-linejoin:round;">
<path d="M35433 37401
L35433 2362
" />
<path d="M5905 39370
L33464 39370
" />
<path d="M3937 2362
L3937 37401
" />
<path d="M33464 393
L5905 393
" />
<path d="M35433.1 2362.2 A1968.5 1968.5 0.0 0 0 33464.6 393.701 " />
<path d="M33464.6 39370.1 A1968.5 1968.5 0.0 0 0 35433.1 37401.6 " />
<path d="M3937.01 37401.6 A1968.5 1968.5 0.0 0 0 5905.51 39370.1 " />
<path d="M5905.51 393.701 A1968.5 1968.5 0.0 0 0 3937.01 2362.2 " />
<g >
</g>
<g >
</g>
<g >
</g>
<g >
</g>
<g >
</g>
<g >
</g>
<g >
</g>
<g >
</g>
<g >
</g>
<g >
</g>
<g >
</g>
<g >
</g>
<g >
</g>
<g >
</g>
<g >
</g>
<g >
</g>
<g >
</g>
<g >
</g>
<g >
</g>
<g >
</g>
<g >
</g>
<g >
</g>
<g >
</g>
<g >
</g>
<g >
</g>
<g >
</g>
<g >
</g>
<g >
</g>
<g >
</g>
<g >
</g>
<g >
</g>
<g >
</g>
<g >
</g>
<g >
</g>
<g >
</g>
<g >
</g>
<g >
</g>
<g >
</g>
<g >
</g>
<g >
</g>
<g >
</g>
<g >
</g>
<g >
</g>
<g >
</g>
<g >
</g>
<g >
</g>
<g >
</g>
<g >
</g>
<g >
</g>
<g >
</g>
<g >
</g>
<g >
</g>
<g >
</g>
<g >
</g>
<g >
</g>
<g >
</g>
<g >
</g>
<g >
</g>
<g >
</g>
<g >
</g>
</g> 
</svg>
